<svg width="80" height="80" viewBox="0 0 80 80" fill="none" xmlns="http://www.w3.org/2000/svg">
<g clip-path="url(#clip0_8360_265525)">
<path d="M78.5686 56.6906L73.2014 40.3881C72.999 39.7734 72.3364 39.4391 71.7219 39.6414C71.107 39.8438 70.7728 40.5063 70.9751 41.1209L76.03 56.4752C75.8787 56.4528 75.7251 56.4375 75.5678 56.4375H71.0333L65.047 38.2539V26.2933H65.5037C65.8565 26.2933 66.1678 26.5184 66.2781 26.8536L70.9751 41.1209C71.1375 41.6141 71.406 39.6875 71.7219 39.6414C71.6001 39.6814 71.8433 39.6414 71.7219 39.6414C72.3367 39.4391 73.4037 41.0028 73.2014 40.3881L68.5045 26.1208C68.0769 24.8222 66.8711 23.9497 65.5039 23.9497H47.9905C45.6856 22.4611 42.942 21.5961 40 21.5961C37.0579 21.5961 34.3144 22.4611 32.0095 23.9497H14.4961C13.1289 23.9497 11.9231 24.8222 11.4954 26.1209L1.43139 56.6908C1.32623 57.01 1.27295 57.3424 1.27295 57.6784V71.8114C1.27295 72.4586 1.79764 71.8114 2.44482 71.8114C3.09201 71.8114 3.6167 72.4586 3.6167 71.8114V59.5966C3.6167 59.147 3.98248 58.7813 4.43201 58.7813H19.104C19.4133 58.7813 19.7009 58.9608 19.8365 59.2388L22.7197 65.142C23.2456 66.2189 24.3598 66.9147 25.5583 66.9147H54.4415C55.64 66.9147 56.7542 66.2188 57.2801 65.142L60.1633 59.2388C60.299 58.9609 60.5865 58.7813 60.8958 58.7813H75.5678C76.0173 58.7813 76.3831 59.147 76.3831 59.5966V76.841C76.3831 77.2905 76.0173 77.6563 75.5678 77.6563H4.43201C3.98248 77.6563 3.6167 77.2905 3.6167 76.841V71.8114C3.6167 71.1642 3.09201 70.6395 2.44482 70.6395C1.79764 70.6395 1.27295 71.1642 1.27295 71.8114V76.841C1.27295 78.5828 2.69014 80 4.43201 80H75.5679C77.3098 80 78.727 78.5828 78.727 76.841V57.6784C78.727 57.3425 78.6737 57.0102 78.5686 56.6906ZM62.7034 35.987C62.4723 35.9336 62.2328 35.9044 61.9878 35.9044H54.7614C54.6472 32.1966 53.1597 28.8289 50.7914 26.2933H62.7034V35.987ZM25.2386 35.9045H18.0122C17.7672 35.9045 17.5276 35.9336 17.2965 35.9872V26.2934H29.2086C26.8404 28.8291 25.3528 32.1967 25.2386 35.9045ZM3.96982 56.4753L13.7217 26.8538C13.832 26.5186 14.1433 26.2934 14.4961 26.2934H14.9528V38.2542L8.96654 56.4375H4.43201C4.27467 56.4375 4.12123 56.453 3.96982 56.4753ZM58.0572 58.2102L55.1739 64.1136C55.0383 64.3914 54.7508 64.5709 54.4414 64.5709H25.5584C25.2492 64.5709 24.9617 64.3914 24.8259 64.1134L21.9428 58.2102C21.4169 57.1333 20.3026 56.4375 19.1042 56.4375H11.4342L17.2379 38.8086C17.3483 38.4734 17.6595 38.2483 18.0123 38.2483H25.3522C25.7019 40.9556 26.7989 43.5375 28.5276 45.6669C32.9995 52.3331 41.9995 50.9997 42.8189 50.8413C42.9995 50.6664 42.3328 49.9997 41.6734 49.9109C41.8139 49.2792 43.2101 48.6631 42.5783 48.5225C38.6662 48.9997 34.6662 48.9997 30.3473 44.1895C28.5594 41.987 27.5745 39.2083 27.5745 36.3653C27.5745 29.5138 33.1486 23.9397 40 23.9397C46.8514 23.9397 52.4255 29.5138 52.4255 36.3653C52.4255 42.2059 48.284 47.3189 42.5783 48.5225C41.945 48.6561 41.5398 49.2777 41.6734 49.9109C41.7898 50.4627 42.4735 50.8413 42.8189 50.8413C42.8589 50.8413 42.9804 50.833 43.0619 50.8158C46.3262 50.1272 49.2956 48.32 51.4231 45.7272C53.1808 43.5852 54.2947 40.9817 54.6475 38.2483H61.9875C62.3403 38.2483 62.6515 38.4734 62.7619 38.8086L68.5659 56.4375H60.8958C59.6975 56.4375 58.5833 57.1333 58.0572 58.2102Z" fill="#323232" fill-opacity="0.48"/>
<path d="M8.42407 74.5925H12.7125C13.3597 74.5925 13.8844 74.0678 13.8844 73.4206C13.8844 72.7734 13.3597 72.2487 12.7125 72.2487H8.42407C7.77688 72.2487 7.2522 72.7734 7.2522 73.4206C7.2522 74.0678 7.77688 74.5925 8.42407 74.5925Z" fill="#323232" fill-opacity="0.48"/>
<path d="M68.5046 74.5925H72.7931C73.4403 74.5925 73.965 74.0678 73.965 73.4206C73.965 72.7734 73.4403 72.2487 72.7931 72.2487H68.5046C67.8575 72.2487 67.3328 72.7734 67.3328 73.4206C67.3328 74.0678 67.8575 74.5925 68.5046 74.5925Z" fill="#323232" fill-opacity="0.48"/>
<path d="M8.42407 70.9317H12.7125C13.3597 70.9317 13.8844 70.407 13.8844 69.7598C13.8844 69.1126 13.3597 68.5879 12.7125 68.5879H8.42407C7.77688 68.5879 7.2522 69.1126 7.2522 69.7598C7.2522 70.407 7.77688 70.9317 8.42407 70.9317Z" fill="#323232" fill-opacity="0.48"/>
<path d="M68.5046 70.9317H72.7931C73.4403 70.9317 73.965 70.407 73.965 69.7598C73.965 69.1126 73.4403 68.5879 72.7931 68.5879H68.5046C67.8575 68.5879 67.3328 69.1126 67.3328 69.7598C67.3328 70.407 67.8575 70.9317 68.5046 70.9317Z" fill="#323232" fill-opacity="0.48"/>
<path d="M42.7021 41.585C43.0332 41.585 43.3623 41.4455 43.594 41.1739C44.0141 40.6817 43.9557 39.9419 43.4635 39.5217C42.4973 38.697 41.2141 38.2406 39.8502 38.2364C38.4887 38.2335 37.2005 38.6811 36.2294 39.5002C35.7346 39.9174 35.6718 40.6567 36.0891 41.1514C36.5063 41.6463 37.2457 41.7092 37.7404 41.2917C38.2771 40.8392 39.039 40.58 39.8323 40.58H39.8432C40.6407 40.5825 41.4055 40.8464 41.9419 41.3042C42.1626 41.4928 42.433 41.585 42.7021 41.585Z" fill="#323232" fill-opacity="0.48"/>
<path d="M33.545 33.8381H33.5311C32.8838 33.8422 32.3633 34.3564 32.3599 35.0036C32.3563 35.6508 32.885 36.1783 33.5322 36.1819H33.5388C34.183 36.1819 34.7071 35.6614 34.7105 35.0164C34.7139 34.3692 34.1922 33.8417 33.545 33.8381Z" fill="#323232" fill-opacity="0.48"/>
<path d="M46.3539 36.1755C46.3627 36.1764 46.3717 36.1763 46.3805 36.177C46.4092 36.1794 46.4378 36.1817 46.4672 36.1819H46.4738H46.4753C46.4763 36.1819 46.477 36.1817 46.478 36.1817C46.5169 36.1816 46.5553 36.1797 46.5933 36.1759C47.1852 36.1167 47.6472 35.6173 47.6472 35.01C47.6472 34.3742 47.1405 33.8578 46.5091 33.8398C46.4994 33.8395 46.4899 33.8383 46.48 33.8383H46.4764C46.4761 33.8383 46.4756 33.8383 46.4753 33.8383H46.4661H46.4611C46.4606 33.8383 46.46 33.8383 46.4595 33.8383C45.8155 33.8383 45.2983 34.3588 45.2947 35.0038C45.2914 35.6125 45.7594 36.1152 46.3539 36.1755Z" fill="#323232" fill-opacity="0.48"/>
<path d="M33.0095 5.55235C33.2383 5.78126 33.5383 5.89563 33.8381 5.89563C34.1379 5.89563 34.4379 5.78126 34.6667 5.55235L35.614 4.60501L36.5614 5.55235C36.7901 5.7811 37.0901 5.89563 37.39 5.89563C37.6898 5.89563 37.9898 5.78126 38.2186 5.55235C38.6762 5.09469 38.6762 4.35266 38.2186 3.89516L37.2712 2.94782L38.2186 2.00048C38.6762 1.54282 38.6762 0.800788 38.2186 0.343288C37.7611 -0.114368 37.019 -0.114368 36.5614 0.343288L35.614 1.29063L34.6667 0.343288C34.209 -0.114368 33.467 -0.114368 33.0095 0.343288C32.5518 0.800944 32.5518 1.54298 33.0095 2.00048L33.9568 2.94782L33.0095 3.89516C32.5518 4.35282 32.5518 5.09485 33.0095 5.55235Z" fill="#323232" fill-opacity="0.48"/>
<path d="M55.9258 17.0519C56.1545 17.2806 56.4545 17.3952 56.7544 17.3952C57.0542 17.3952 57.3542 17.2808 57.583 17.0519L58.5303 16.1045L59.4776 17.0519C59.7064 17.2806 60.0064 17.3952 60.3062 17.3952C60.6061 17.3952 60.9061 17.2808 61.1348 17.0519C61.5925 16.5942 61.5925 15.8522 61.1348 15.3947L60.1875 14.4473L61.1348 13.5C61.5925 13.0423 61.5925 12.3003 61.1348 11.8428C60.6772 11.3852 59.9351 11.3852 59.4776 11.8428L58.5303 12.7902L57.583 11.8428C57.1253 11.3852 56.3833 11.3852 55.9258 11.8428C55.4681 12.3005 55.4681 13.0425 55.9258 13.5L56.8731 14.4473L55.9258 15.3947C55.4681 15.8523 55.4681 16.5944 55.9258 17.0519Z" fill="#323232" fill-opacity="0.48"/>
<path d="M39.9355 16.8748H39.9391C40.5846 16.8748 41.109 16.3525 41.111 15.7064L41.1213 12.2169C41.1232 11.5697 40.6002 11.0434 39.9529 11.0416C39.9516 11.0416 39.9505 11.0416 39.9493 11.0416C39.3038 11.0416 38.7794 11.5639 38.7774 12.21L38.7671 15.6995C38.7652 16.3466 39.2883 16.8728 39.9355 16.8748Z" fill="#323232" fill-opacity="0.48"/>
<path d="M32.3196 13.1577C31.7644 13.4902 31.5839 14.2099 31.9164 14.7652L33.7296 17.7924C33.9493 18.1591 34.3375 18.3622 34.736 18.3622C34.9408 18.3622 35.1485 18.3084 35.3371 18.1955C35.8922 17.863 36.0727 17.1433 35.7402 16.588L33.9271 13.5608C33.5944 13.0056 32.8747 12.825 32.3196 13.1577Z" fill="#323232" fill-opacity="0.48"/>
<path d="M44.5261 18.2397C44.7161 18.355 44.926 18.4099 45.133 18.4099C45.5291 18.4099 45.9155 18.2091 46.136 17.8459L47.9672 14.8288C48.303 14.2755 48.1267 13.5547 47.5735 13.2189C47.02 12.8833 46.2994 13.0594 45.9636 13.6127L44.1324 16.6299C43.7966 17.1831 43.973 17.9039 44.5261 18.2397Z" fill="#323232" fill-opacity="0.48"/>
<path d="M23.824 15.6492C26.3006 15.6492 28.3153 13.6344 28.3153 11.158C28.3153 8.68156 26.3006 6.66672 23.824 6.66672C21.3474 6.66672 19.3328 8.68156 19.3328 11.158C19.3328 13.6344 21.3474 15.6492 23.824 15.6492ZM23.824 9.01047C25.0082 9.01047 25.9715 9.97391 25.9715 11.158C25.9715 12.342 25.0081 13.3055 23.824 13.3055C22.6399 13.3055 21.6765 12.342 21.6765 11.158C21.6765 9.97391 22.6398 9.01047 23.824 9.01047Z" fill="#323232" fill-opacity="0.48"/>
<path d="M45.9405 4.03628C45.44 4.32731 45.175 4.8818 45.2621 5.45273C45.263 5.45847 45.2639 5.46421 45.2648 5.46983C45.3599 6.0467 45.7915 6.49465 46.3645 6.6109L48.7625 7.0974L49.9418 9.2414C50.2236 9.75369 50.7797 10.0322 51.3588 9.95095C51.9379 9.86968 52.3959 9.44888 52.5259 8.87868L54.0903 2.01308C54.2158 1.46263 54.0111 0.912863 53.5563 0.578366C53.1014 0.243883 52.5157 0.212416 52.0276 0.49627L45.9405 4.03628ZM51.1436 8.41686L50.0213 6.37646C49.8233 6.01639 49.4787 5.7629 49.0758 5.68115L46.7934 5.21811L52.6483 1.8132L51.1436 8.41686Z" fill="#323232" fill-opacity="0.48"/>
<path d="M52.7209 8.92312L52.7209 8.92313C52.5724 9.57427 52.0479 10.0562 51.3866 10.149C50.7253 10.2418 50.0883 9.92283 49.7666 9.33779L48.6319 7.27498L46.3248 6.80691C45.6704 6.67415 45.176 6.16112 45.0675 5.50234M52.7209 8.92312L45.2648 5.46983M52.7209 8.92312L54.2853 2.05756C54.2853 2.05754 54.2853 2.05753 54.2853 2.05751C54.4285 1.42938 54.1937 0.798899 53.6748 0.417253L53.6748 0.417239C53.1558 0.0355808 52.484 -0.00050825 51.9271 0.32338L51.9271 0.323381L45.8399 3.86338L52.7209 8.92312ZM45.0675 5.50234L45.2648 5.46983M45.0675 5.50234L45.0677 5.50332L45.2648 5.46983M45.0675 5.50234L45.0644 5.48289C44.965 4.83074 45.2684 4.19572 45.8399 3.86339L45.9405 4.03628C45.44 4.32731 45.175 4.8818 45.2621 5.45273L45.2648 5.46983M49.1156 5.48514L49.1156 5.48514L47.3485 5.12665L52.3511 2.21742L51.0654 7.85975L50.1965 6.28008C50.1965 6.28008 50.1965 6.28007 50.1965 6.28007C49.9702 5.86851 49.576 5.57859 49.1156 5.48514Z" stroke="#323232" stroke-opacity="0.48" stroke-width="0.4"/>
</g>
<defs>
<clipPath id="clip0_8360_265525">
<rect width="80" height="80" fill="white"/>
</clipPath>
</defs>
</svg>
