<svg width="571" height="571" viewBox="0 0 571 571" fill="none" xmlns="http://www.w3.org/2000/svg">
<path d="M570.681 0H0V570.681H570.681V0Z" fill="white"/>
<path d="M90.4272 527.152H180.107L187.828 491.619L133.12 491.442L130.306 498.49C122.716 498.65 85.9987 502.131 88.8435 520.481C89.263 523.18 89.5968 525.534 90.4272 527.152Z" fill="black"/>
<path d="M384.773 527.152H291.935L284.213 491.619L338.922 491.442L341.735 498.478C349.322 498.638 360.639 501.5 364.209 503.004C367.724 504.482 385.849 509.852 386.357 520.47C386.427 522.798 385.881 525.103 384.773 527.152Z" fill="black"/>
<path d="M115.968 493.38L200.143 496.016C215.792 448.761 222.737 385.829 231.323 338.568C233.674 325.631 234.136 313.589 247.285 313.589C247.285 313.589 262.333 440.606 267.167 494.96L373.471 492.723C354.824 415.145 325.922 320.694 307.272 243.119H174.811C155.197 320.166 135.582 416.329 115.968 493.38Z" fill="#0EBDFF"/>
<path d="M343.216 187.483L347.553 177.328C346.933 168.396 349.384 159.522 354.501 152.175L358.459 132.486C358.071 130.657 355.605 118.67 359.252 117.007C360.279 116.539 361.443 117.044 362.331 117.446C368.811 120.374 370.198 129.841 370.423 131.519C370.627 136.21 370.831 140.901 371.037 145.592C371.43 145.863 371.879 146.043 372.351 146.119C372.823 146.195 373.306 146.165 373.764 146.032L392.674 141.107C393.53 140.895 397.122 140.102 400.415 142.162C404.036 144.425 405.802 149.219 404.635 154.035C405.752 155.163 406.621 156.511 407.186 157.993C409.078 163.015 406.616 167.695 406.131 168.551C406.67 169.535 407.686 171.735 407.089 174.16C406.148 177.99 401.859 179.645 399.362 180.609C396.726 181.613 393.9 182.022 391.087 181.805C389.501 184.382 387.328 186.549 384.746 188.128C382.163 189.706 379.244 190.653 376.227 190.89C375.774 192.185 375.319 193.482 374.863 194.779L343.216 187.483Z" fill="#FF9E9F"/>
<path d="M388.951 147.307C388.448 147.393 383.355 148.334 381.563 152.7C381.278 153.411 380.282 155.839 381.378 157.616C383.09 160.413 388.6 159.651 392.221 159.152C397.87 158.373 402.393 157.751 404.299 154.05C406.439 149.898 403.728 144.885 403.243 144.023" stroke="black" stroke-width="1.31827" stroke-linecap="round" stroke-linejoin="round"/>
<path d="M389.23 159.505C384.639 161.7 382.607 165.751 383.614 168.405C383.757 168.779 384.391 170.254 386.782 171.219C390.834 171.724 397.99 172.003 404.019 168.462C405.566 167.555 406.547 166.685 407.186 165.472C409.7 160.701 404.972 154.292 404.493 153.662" stroke="black" stroke-width="1.31827" stroke-linecap="round" stroke-linejoin="round"/>
<path d="M391.296 171.527C390.177 172.291 384.516 176.261 385.344 179.088C386.171 181.916 393.399 182.652 398.683 180.846C399.254 180.646 407.415 177.756 407.363 172.431C407.344 170.363 406.091 168.722 405.155 167.737" stroke="black" stroke-width="1.31827" stroke-linecap="round" stroke-linejoin="round"/>
<path d="M371.39 149.27C372.719 152.821 373.436 156.571 373.511 160.361C373.693 170.848 368.8 178.498 366.662 181.477" stroke="black" stroke-width="1.31827" stroke-linecap="round" stroke-linejoin="round"/>
<path d="M334.704 185.859C333.181 179.916 329.948 170.716 322.566 162.025C312.748 150.463 301.009 146.191 288.439 141.794C266.1 133.982 247.302 133.856 235.754 133.879C229.79 133.879 210.168 134.221 185.563 140.913C177.605 143.078 168.585 145.529 158.455 150.414C147.455 155.71 108.96 174.249 103.042 210.225C102.249 215.047 99.1159 237.971 113.74 255.023C125.153 268.337 142.428 272.255 146.405 273.028C150.821 273.838 155.288 274.338 159.774 274.523C164.998 274.756 170.233 274.58 175.43 273.995L175.345 254.207H306.741C307.629 255.271 323.93 274.181 347.1 270.471C367.133 267.284 377.001 249.642 378.247 247.336C380.362 243.407 382.148 235.868 385.635 220.948C387.846 211.486 389.516 203.676 390.606 198.431L334.704 185.859Z" fill="#F16D55"/>
<path d="M389.067 198.026L333.48 185.243L320.112 232.153" stroke="black" stroke-width="1.31827" stroke-linecap="round" stroke-linejoin="round"/>
<path d="M214.918 122.034L212.69 144.551C213.446 145.609 218.274 152.138 227.114 153.111C237.649 154.272 244.485 146.514 245.056 145.84C245.528 137.946 245.998 130.052 246.466 122.157C248.87 122.108 251.217 121.419 253.265 120.16C257.831 117.261 259.169 112.045 259.951 108.786C263.466 94.1338 258.775 68.9354 258.073 65.2773C254.39 63.6167 240.445 57.8585 224.066 63.0488C216.179 65.5853 209.1 70.1559 203.542 76.3L197.678 94.5961C196.2 94.7873 193.723 95.3551 191.814 97.2925C187.82 101.356 188.904 108.817 192.051 113.36C195.062 117.703 201.059 120.97 206.121 119.352C207.436 118.917 208.637 118.196 209.64 117.241L214.918 122.034Z" fill="#FF9E9F"/>
<path d="M251.565 83.2167C249.186 82.0483 246.496 81.6742 243.889 82.1493C241.282 82.6245 238.897 83.9238 237.084 85.8561C236.999 88.0534 237.389 90.2432 238.226 92.2766C239.063 94.31 240.328 96.1394 241.934 97.6406C241.061 98.0287 240.103 98.4082 239.061 98.7563C237.473 99.2887 235.846 99.6998 234.196 99.9861" stroke="black" stroke-width="1.31827" stroke-linecap="round" stroke-linejoin="round"/>
<path d="M213.218 88.3186C215.497 86.8009 218.096 85.8309 220.812 85.4844C223.528 85.1379 226.287 85.4243 228.874 86.3212" stroke="black" stroke-width="1.31827" stroke-linecap="round" stroke-linejoin="round"/>
<path d="M236.322 105.322C231.057 105.779 226.603 102.834 225.296 105.322C224.155 107.488 228.524 113.243 234.093 114.353C239.058 115.34 244.745 112.587 246.466 108.255C247.108 106.635 247.633 103.69 246.181 102.392C244.488 100.888 241.709 104.857 236.322 105.322Z" fill="white" stroke="black" stroke-width="1.31827" stroke-linecap="round" stroke-linejoin="round"/>
<path d="M194.277 104.677L204.949 104.092L201.901 114.881" stroke="black" stroke-width="1.31827" stroke-linecap="round" stroke-linejoin="round"/>
<path d="M195.552 95.0583C194.571 94.4363 190.764 91.8625 189.823 87.2029C188.719 81.7615 191.971 75.678 198.032 72.6505C201.363 66.9509 205.831 61.9974 211.158 58.0982C214.148 55.9239 227.548 46.1909 244.463 49.538C247.664 50.1714 263.326 53.2702 267.684 65.6026C269.681 71.2353 269.493 79.8839 264.516 85.6564C263.505 86.826 262.332 87.8454 261.032 88.6838C260.851 85.5376 260 82.4663 258.536 79.6756C256.509 75.9145 253.459 72.8041 249.739 70.7045C236.042 62.7835 213.161 67.6371 207.639 78.5029C205.953 81.8214 205.642 85.6564 205.642 85.6564C205.197 91.1977 207.271 95.4949 208.339 97.3839C207.675 98.2056 207.009 99.0265 206.341 99.8463C205.109 97.7837 203.204 96.2094 200.945 95.3893C199.21 94.7975 197.347 94.6832 195.552 95.0583Z" fill="black"/>
<path d="M293.772 149.27H199.042C195.837 149.27 193.238 151.869 193.238 155.074V288.222C193.238 291.428 195.837 294.026 199.042 294.026H293.772C296.977 294.026 299.576 291.428 299.576 288.222V155.074C299.576 151.869 296.977 149.27 293.772 149.27Z" fill="#275F7C"/>
<path d="M288.528 227.548C285.529 218.599 284.958 210.781 283.106 205.668C278.124 191.834 273.508 187.862 271.219 186.188C269.536 184.961 264.311 181.143 260.39 183.006C257.894 184.196 256.621 187.357 256.427 187.857C255.922 189.166 255.662 190.944 255.143 194.499C254.835 196.608 254.744 197.704 253.859 198.237C252.786 198.888 250.98 198.454 250.789 198.406C250.423 198.313 250.068 198.182 249.73 198.015V194.22L249.525 171.521H243.281L243.079 194.22V198.026C242.74 198.194 242.384 198.325 242.017 198.417C241.829 198.466 240.02 198.899 238.947 198.249C238.065 197.715 237.971 196.62 237.663 194.511C237.144 190.956 236.884 189.178 236.379 187.868C236.185 187.363 234.915 184.202 232.419 183.017C228.498 181.154 223.27 184.972 221.59 186.199C219.307 187.874 214.685 191.846 209.7 205.679C207.152 212.769 205.335 220.1 204.278 227.559C198.335 238.305 197.775 249.513 202.789 254.293C209.74 260.918 227.234 255.043 234.493 243.801C238.225 238.017 238.562 231.882 238.436 228.392C238.315 221.224 238.191 214.056 238.065 206.886C238.124 206.471 238.305 206.082 238.585 205.77C239.218 205.097 240.194 205.1 240.745 205.1C242.294 205.1 244.149 205.031 246.4 204.952C248.652 205.031 250.503 205.094 252.056 205.1C252.603 205.1 253.582 205.1 254.213 205.77C254.493 206.083 254.674 206.471 254.735 206.886C254.609 214.054 254.485 221.223 254.361 228.392C254.236 231.879 254.575 238.014 258.307 243.801C265.564 255.043 283.058 260.921 290.009 254.293C295.042 249.502 292.434 239.192 288.528 227.548Z" stroke="white" stroke-width="1.31827" stroke-miterlimit="10"/>
<path d="M175.484 212.776C177.563 209.822 179.001 206.466 179.705 202.923C180.872 196.834 179.18 192.865 181.377 191.401C183.223 190.174 186.513 191.572 188.325 193.25C190.807 195.561 190.93 198.86 191.053 202.132C191.168 205.654 190.538 209.161 189.204 212.422L193.161 215.238C195.729 215.238 199.502 215.187 204.07 214.973C215.324 214.445 221.045 213.389 222.925 216.379C223.673 217.569 223.496 218.905 223.453 219.284C222.474 226.9 202.575 229.925 201.342 230.102C202.518 229.771 219.344 225.182 222.897 231.097C223.26 231.679 223.462 232.347 223.482 233.032C223.533 239.569 203.707 244.283 201.51 244.791C204.318 244.306 218.06 242.074 220.015 246.577C220.585 247.864 219.983 249.259 219.781 249.744C216.394 257.734 185.306 256.781 175.122 256.307L175.484 212.776Z" fill="#FF9E9F"/>
<path d="M129.779 210.753H175.342V264.933" stroke="black" stroke-width="1.31827" stroke-linecap="round" stroke-linejoin="round"/>
<path d="M223.484 218.973C223.41 219.64 223.225 220.29 222.936 220.896C222.547 221.676 222.001 222.368 221.333 222.928C218.02 225.781 213.412 227.168 213.412 227.168C209.383 228.376 205.286 229.341 201.142 230.059" stroke="black" stroke-width="1.31827" stroke-linecap="round" stroke-linejoin="round"/>
<path d="M222.566 230.621C223.122 231.306 223.444 232.151 223.484 233.032C223.502 234.173 222.959 235.746 219.55 238.125C216.14 240.505 213.012 241.487 210.011 242.385C206.872 243.321 202.946 244.423 198.363 245.553" stroke="black" stroke-width="1.31827" stroke-linecap="round" stroke-linejoin="round"/>
<path d="M528.956 498.396H526.645C525.552 498.395 524.505 497.963 523.73 497.193C522.955 496.424 522.515 495.379 522.507 494.287C522.496 492.364 522.483 490.441 522.47 488.52C522.462 487.428 522.023 486.384 521.249 485.614C520.474 484.844 519.427 484.411 518.336 484.408L419.154 484.323C418.064 484.322 417.018 484.751 416.243 485.517C415.467 486.284 415.026 487.325 415.014 488.414C414.991 490.378 414.969 492.34 414.948 494.301C414.937 495.39 414.496 496.431 413.722 497.198C412.948 497.965 411.903 498.395 410.813 498.396H408.531C407.433 498.396 406.381 497.96 405.605 497.184C404.829 496.408 404.393 495.356 404.393 494.258V373.845C404.393 372.747 404.829 371.695 405.605 370.919C406.381 370.143 407.433 369.707 408.531 369.707H528.944C530.042 369.707 531.094 370.143 531.87 370.919C532.646 371.695 533.082 372.747 533.082 373.845V494.258C533.082 495.354 532.648 496.404 531.874 497.18C531.101 497.955 530.051 498.393 528.956 498.396V498.396Z" stroke="black" stroke-width="1.4267" stroke-linecap="round" stroke-linejoin="round"/>
<path d="M513.265 381.691H423.38C420.464 381.691 418.101 384.055 418.101 386.97V465.724C418.101 468.64 420.464 471.003 423.38 471.003H513.265C516.18 471.003 518.544 468.64 518.544 465.724V386.97C518.544 384.055 516.18 381.691 513.265 381.691Z" stroke="black" stroke-width="1.4267" stroke-linecap="round" stroke-linejoin="round"/>
<path d="M535.09 358.864H401.968C399.761 358.864 397.973 360.653 397.973 362.859V369.422C397.973 371.628 399.761 373.417 401.968 373.417H535.09C537.297 373.417 539.085 371.628 539.085 369.422V362.859C539.085 360.653 537.297 358.864 535.09 358.864Z" fill="white" stroke="black" stroke-width="1.4267" stroke-linecap="round" stroke-linejoin="round"/>
<path d="M462.326 278.9L469.434 275.354C470.108 275.026 470.711 274.568 471.208 274.006C471.704 273.444 472.084 272.789 472.326 272.079C472.567 271.368 472.665 270.618 472.614 269.869C472.563 269.121 472.364 268.39 472.028 267.72C471.693 267.049 471.227 266.451 470.659 265.962C470.091 265.472 469.431 265.1 468.718 264.868C468.005 264.635 467.253 264.546 466.505 264.606C465.758 264.667 465.03 264.875 464.363 265.218V265.204L457.229 268.765C455.488 267.933 453.531 267.666 451.63 268.002C449.73 268.337 447.982 269.258 446.631 270.635C445.28 272.013 444.393 273.778 444.094 275.685C443.796 277.591 444.1 279.543 444.965 281.268C445.831 282.993 447.213 284.404 448.92 285.304C450.627 286.205 452.572 286.549 454.484 286.29C456.397 286.03 458.18 285.179 459.585 283.856C460.99 282.534 461.946 280.805 462.32 278.912L462.326 278.9Z" fill="white" stroke="black" stroke-width="1.4267" stroke-linecap="round" stroke-linejoin="round"/>
<path d="M472.863 358.864H525.671C525.671 348.555 515.399 340.072 502.199 338.965V283.172C502.195 277.092 499.81 271.256 495.554 266.914C491.298 262.572 485.51 260.071 479.432 259.945C475.883 254.579 470.545 250.647 464.368 248.849C458.191 247.051 451.576 247.504 445.702 250.127L467.881 299.713C473.964 296.992 478.834 292.128 481.564 286.049C484.295 279.97 484.694 273.1 482.688 266.745C490.58 268.879 496.495 277.628 496.495 288.106V338.95C483.213 340.003 472.863 348.515 472.863 358.864Z" fill="white" stroke="black" stroke-width="1.4267" stroke-linecap="round" stroke-linejoin="round"/>
<path d="M496.492 338.95H502.199Z" fill="white"/>
<path d="M496.492 338.95H502.199" stroke="black" stroke-width="1.4267" stroke-linecap="round" stroke-linejoin="round"/>
<path d="M496.492 334.884H502.199Z" fill="white"/>
<path d="M496.492 334.884H502.199" stroke="black" stroke-width="1.4267" stroke-linecap="round" stroke-linejoin="round"/>
<path d="M496.492 330.815L502.199 330.832Z" fill="white"/>
<path d="M496.492 330.815L502.199 330.832" stroke="black" stroke-width="1.4267" stroke-linecap="round" stroke-linejoin="round"/>
<path d="M496.492 326.735H502.199Z" fill="white"/>
<path d="M496.492 326.735H502.199" stroke="black" stroke-width="1.4267" stroke-linecap="round" stroke-linejoin="round"/>
<path d="M496.492 322.669H502.199Z" fill="white"/>
<path d="M496.492 322.669H502.199" stroke="black" stroke-width="1.4267" stroke-linecap="round" stroke-linejoin="round"/>
<path d="M496.492 318.6L502.199 318.617Z" fill="white"/>
<path d="M496.492 318.6L502.199 318.617" stroke="black" stroke-width="1.4267" stroke-linecap="round" stroke-linejoin="round"/>
<path d="M496.492 314.542L502.199 314.557Z" fill="white"/>
<path d="M496.492 314.542L502.199 314.557" stroke="black" stroke-width="1.4267" stroke-linecap="round" stroke-linejoin="round"/>
<path d="M496.492 310.476L502.199 310.49Z" fill="white"/>
<path d="M496.492 310.476L502.199 310.49" stroke="black" stroke-width="1.4267" stroke-linecap="round" stroke-linejoin="round"/>
<path d="M496.492 306.407L502.199 306.424Z" fill="white"/>
<path d="M496.492 306.407L502.199 306.424" stroke="black" stroke-width="1.4267" stroke-linecap="round" stroke-linejoin="round"/>
<path d="M496.492 302.35L502.199 302.364Z" fill="white"/>
<path d="M496.492 302.35L502.199 302.364" stroke="black" stroke-width="1.4267" stroke-linecap="round" stroke-linejoin="round"/>
<path d="M496.492 298.284L502.199 298.298Z" fill="white"/>
<path d="M496.492 298.284L502.199 298.298" stroke="black" stroke-width="1.4267" stroke-linecap="round" stroke-linejoin="round"/>
<path d="M496.492 294.215L502.199 294.232Z" fill="white"/>
<path d="M496.492 294.215L502.199 294.232" stroke="black" stroke-width="1.4267" stroke-linecap="round" stroke-linejoin="round"/>
<path d="M496.492 290.126L502.199 290.143Z" fill="white"/>
<path d="M496.492 290.126L502.199 290.143" stroke="black" stroke-width="1.4267" stroke-linecap="round" stroke-linejoin="round"/>
<path d="M496.492 286.06L502.199 286.074Z" fill="white"/>
<path d="M496.492 286.06L502.199 286.074" stroke="black" stroke-width="1.4267" stroke-linecap="round" stroke-linejoin="round"/>
<path d="M496.322 282.43L501.966 281.574Z" fill="white"/>
<path d="M496.322 282.43L501.966 281.574" stroke="black" stroke-width="1.4267" stroke-linecap="round" stroke-linejoin="round"/>
<path d="M495.417 278.692L500.918 277.171Z" fill="white"/>
<path d="M495.417 278.692L500.918 277.171" stroke="black" stroke-width="1.4267" stroke-linecap="round" stroke-linejoin="round"/>
<path d="M493.978 275.399L499.003 272.691Z" fill="white"/>
<path d="M493.978 275.399L499.003 272.691" stroke="black" stroke-width="1.4267" stroke-linecap="round" stroke-linejoin="round"/>
<path d="M491.987 272.332L496.321 268.622Z" fill="white"/>
<path d="M491.987 272.332L496.321 268.622" stroke="black" stroke-width="1.4267" stroke-linecap="round" stroke-linejoin="round"/>
<path d="M489.236 269.504L492.874 265.104Z" fill="white"/>
<path d="M489.236 269.504L492.874 265.104" stroke="black" stroke-width="1.4267" stroke-linecap="round" stroke-linejoin="round"/>
<path d="M486.009 267.584L488.828 262.622Z" fill="white"/>
<path d="M486.009 267.584L488.828 262.622" stroke="black" stroke-width="1.4267" stroke-linecap="round" stroke-linejoin="round"/>
<path d="M483.204 266.594C483.309 264.691 483.416 262.789 483.527 260.887Z" fill="white"/>
<path d="M483.204 266.594C483.309 264.691 483.416 262.789 483.527 260.887" stroke="black" stroke-width="1.4267" stroke-linecap="round" stroke-linejoin="round"/>
<path d="M482.573 266.422C481.643 264.414 480.712 262.403 479.78 260.39Z" fill="white"/>
<path d="M482.573 266.422C481.643 264.414 480.712 262.403 479.78 260.39" stroke="black" stroke-width="1.4267" stroke-linecap="round" stroke-linejoin="round"/>
</svg>
