<svg xmlns="http://www.w3.org/2000/svg" viewBox="0 0 2000 2000"><defs><style>.cls-1,.cls-6{fill:transparent;}.cls-2,.cls-9{fill:none;}.cls-2,.cls-6{stroke:#000;}.cls-2,.cls-6,.cls-9{stroke-linecap:round;stroke-linejoin:round;stroke-width:5px;}.cls-3{fill:#292929;}.cls-4{fill:#163342;}.cls-5{fill:#ff9e9f;}.cls-7{fill:#f4e12c;}.cls-8{fill:#0ebdff;}.cls-9{stroke:#fff;}.cls-10{fill:#fff;}.cls-11{fill:#f06d57;}</style></defs><g id="_06" data-name="06"><rect class="cls-1" width="2000" height="2000"/><rect class="cls-2" x="729" y="440" width="799" height="1189.23" rx="51"/><path class="cls-2" d="M729,664.33h367.68"/><path class="cls-2" d="M729,1027h367.68"/><path class="cls-2" d="M1134.76,440V1629.33"/><path class="cls-2" d="M944,1319l584,.56"/><rect class="cls-2" x="1170.27" y="1430" width="32.07" height="66" rx="10.67"/><rect class="cls-2" x="1048.45" y="1430" width="32.07" height="66" rx="10.67"/><path d="M312.67,1410.82c-68.49,0-124,52.81-124,118v207.27h22.89v-192.6c0-60.53,45.26-109.61,101.11-109.61s101.11,49.08,101.11,109.61v192.6h22.89V1528.78C436.67,1463.63,381.15,1410.82,312.67,1410.82Z"/><path d="M508,1410.82c-68.48,0-124,52.81-124,118v207.27h22.89v-192.6c0-60.53,45.27-109.61,101.11-109.61s101.11,49.08,101.11,109.61v192.6H632V1528.78C632,1463.63,576.48,1410.82,508,1410.82Z"/><rect x="174" y="1048.52" width="322.67" height="322.67" rx="53.92" transform="translate(670.67 2419.7) rotate(180)"/><rect class="cls-3" x="184.67" y="1349.51" width="356" height="64.34" rx="24.91" transform="translate(725.33 2763.36) rotate(180)"/><rect class="cls-4" x="1109.06" y="1209.85" width="36.92" height="526.2" transform="translate(2255.03 2945.91) rotate(180)"/><rect class="cls-4" x="282.67" y="1209.85" width="30" height="526.2" transform="translate(595.33 2945.91) rotate(180)"/><path class="cls-5" d="M993.33,731.33l54.34-16,31.66-28.66,65.34-21.34,59.66,115a209.7,209.7,0,0,1-31,15.34c-39.91,15.79-76.77,16.16-101,14l-51.66,16.66Q1007,778.84,993.33,731.33Z"/><path class="cls-2" d="M1161,698.33c-2.58.78-16.76,5.28-23,19.34-1,2.36-5.8,13.06-1.39,20.07,5.31,8.46,23.2,10.37,42.72.59"/><path class="cls-2" d="M1180.14,738.9c-2.58.77-16.76,5.28-23,19.33-1.05,2.37-5.8,13.06-1.39,20.07,5.31,8.46,23.2,10.38,42.72.6"/><path class="cls-6" d="M1117.08,603.41l79.57,175c6.25,13.74,20.74,20.61,32.36,15.32s16-20.71,9.72-34.45l-79.57-175Z"/><path class="cls-7" d="M1154.05,684.72l39.47-24.87,45.64,104a29.13,29.13,0,0,1,.69,14c-1.68,7.82-7.26,15-15.76,16.48-8.66,1.52-18.14-3.24-24-12.06Z"/><path class="cls-2" d="M1117.08,603.41l79.57,175c6.25,13.74,20.74,20.61,32.36,15.32s16-20.71,9.72-34.45l-79.57-175Z"/><path class="cls-5" d="M1047.67,715.33a97,97,0,0,1,16-30c9.15-11.56,15.44-13.85,47.66-35,29.33-19.25,37.42-26.08,42.67-22.66,7.36,4.79,1.74,24.91,1.33,26.33-9.34,32.42-46.7,46.66-57.33,50.33"/><path class="cls-2" d="M1154,627.67c7.36,4.79,1.74,24.91,1.33,26.33-9.34,32.42-46.7,46.66-57.33,50.33"/><ellipse class="cls-5" cx="1195.64" cy="632.23" rx="22.5" ry="18" transform="translate(-145.49 807.28) rotate(-35.31)"/><path d="M819.53,1728.27a57.29,57.29,0,0,0-10.12-14.88c-16.22-16.76-41-18.32-79.3-40.71-16.46-9.61-37.92-25-59.8-50.17a11.7,11.7,0,0,0-7.55-4L542.18,1605a11.76,11.76,0,0,0-13.07,11.79c.3,32.08.47,59.31,1.22,130.51.07,6.38,0,11.53-.11,14.5l62.11,0v-20.41h78.34v20.37l155.66-.1A68.72,68.72,0,0,0,819.53,1728.27Z"/><path d="M1052.42,1728.27a57.29,57.29,0,0,0-10.12-14.88c-16.23-16.76-41-18.32-79.31-40.71-16.45-9.61-37.91-25-59.79-50.17a11.72,11.72,0,0,0-7.55-4L775.07,1605A11.75,11.75,0,0,0,762,1616.77c.3,32.08.47,59.31,1.22,130.51.07,6.38,0,11.53-.11,14.5l62.11,0v-20.41h78.33v20.37l155.67-.1A68.72,68.72,0,0,0,1052.42,1728.27Z"/><path class="cls-8" d="M952.67,1460.52v148a245.5,245.5,0,0,1-80.67,20c-56.16,4-100-12.49-122-22.67a356,356,0,0,1-244.67,3.34V1459.85L760,1296.52Z"/><path class="cls-2" d="M540.5,1619.5A355.89,355.89,0,0,0,750,1605.85V1349.51"/><path class="cls-9" d="M730.11,1672.68a348.08,348.08,0,0,0,40.31,19.45c12,4.83,22.43,8.23,34,17.81a60.3,60.3,0,0,1,13.95,16.16c8.47,14.39,8.42,28.78,7.93,35.5"/><path class="cls-10" d="M545.86,779.09c59.36-.65,107.9-5.34,157.81,17.58,1.6.73,2.91,1.36,3.77,1.77l285.23-79.77,48,165.33L770.85,963.54q11.58,112.89,23.15,225.79c11.34.33,26.84,2.42,45,6.52,15,3.39,38.32,10.68,61,28,46.8,35.75,59.1,90,70,138a410.65,410.65,0,0,1,9,119H797.78a556.71,556.71,0,0,0-36.45-128.55c-3.9,23.32-8.85,48-15.11,73.77-4.65,19.19-9.67,37.46-14.89,54.78H482v-105c-18.65-6.24-52.53-20.56-82-53-52.87-58.18-50.83-129.8-50-145.66-16.36-21.48-39.67-58.3-49-108.34-19.38-103.91,28.24-228,120-272C431.4,791.86,469.09,779.93,545.86,779.09Z"/><path class="cls-2" d="M751.33,844q8.38,46.95,15.34,97.33c6.87,50.28,11.85,98.59,15.33,144.67"/><path class="cls-5" d="M688.7,1069.34c15.55-2.73,66.16-9.62,120.19,18.66,53.67,28.09,76.87,73.16,83.55,87.52H686.67Z"/><path class="cls-2" d="M441,908.19q4.67,29.71,8.67,61,3.16,24.91,5.66,49l230.89-.12c2.16,30.58,3.26,63.37,2.78,98.12-.28,20.54-1.1,40.33-2.33,59.33"/><path class="cls-2" d="M488.67,789.85l-48,54.34L511,849.85q-8.67,26-17.33,52A317.68,317.68,0,0,1,640.89,1018.1"/><path class="cls-2" d="M638.22,797.63,682.67,831l-21.78,8.89,52,46.22a387.17,387.17,0,0,1-25.07,159.19"/><path class="cls-2" d="M731.33,1480.85c5.93-19.94,11.6-40.93,16.84-62.94,8.29-34.82,14.51-68,19.16-99.06"/><path class="cls-8" d="M604.67,803.41C571.92,783.54,541.3,778.3,528.33,791a22.26,22.26,0,0,0-5.66,9.74h0A453.1,453.1,0,0,1,659.81,982.12a233.2,233.2,0,0,0-14.48-112A230.35,230.35,0,0,0,604.67,803.41Z"/><path class="cls-5" d="M617.14,819.17,611,767.89a51.23,51.23,0,0,0,11.68-2.7,52,52,0,0,0,13.77-7.56C644.07,751.47,647.52,743,650,735c7.41-23.91,12.22-63.35,3.33-99.61-2.54-10.37-6.39-21.24-16.1-28.57a36.21,36.21,0,0,0-7.45-4.32l-105.34,2.67-55.55,68.88c-8.25,20.6-2,42.84,13.33,53.34s33.49,5,36,4.15q2.22,34.59,4.45,69.18L550,821.6c5.92.68,12.22,1.16,18.85,1.36A224.36,224.36,0,0,0,617.14,819.17Z"/><path class="cls-2" d="M673.11,1018.08A458.52,458.52,0,0,0,593.67,871a453.9,453.9,0,0,0-71-70.26"/><path class="cls-2" d="M487.9,690.17l23.53,3.32-16.31,17.22"/><path class="cls-2" d="M612.22,664.07A34,34,0,0,0,612,677c2.25,12.67,11.21,20.09,14,22.23a52.94,52.94,0,0,1-18.67,10.66"/><path class="cls-2" d="M619.67,729.35a29.61,29.61,0,0,1-13.17,6,30.58,30.58,0,0,1-20.83-4"/><circle class="cls-2" cx="571" cy="667.67" r="24.83"/><circle class="cls-2" cx="640.89" cy="667.67" r="24.83"/><path class="cls-2" d="M595.67,664.8a24,24,0,0,1,12.11-2.8,23.59,23.59,0,0,1,8.55,2"/><path d="M515.56,668c-1.42-1.25-11-9.41-24.45-7.56-16.29,2.25-23.31,17.06-23.75,18a82.69,82.69,0,0,1-9.58-40.7c1.1-35,25.4-57.3,32.2-63,39.17-33.06,95.75-21.59,122.35-5.07a90.7,90.7,0,0,1,25.89,24.55,76.67,76.67,0,0,1,11.22,29Q634,624.8,618,626a1010.08,1010.08,0,0,1-113.33,2l19.11,39.56Z"/><path class="cls-2" d="M761.33,1107.11A145.79,145.79,0,0,1,796,1125.78a148.34,148.34,0,0,1,43.11,49.74"/><path class="cls-11" d="M1206.75,1053.83l46.23-5.33-1.5,96a22.63,22.63,0,0,1-5.17,11,21.73,21.73,0,0,1-38-10.5Z"/><path class="cls-2" d="M1206.75,978.33v162.49a23.12,23.12,0,0,0,46.23,0V978.33Z"/><path class="cls-4" d="M1282.1,1018.1H1152.43c-8.19,0-14.83,7-14.83,15.55v141.87h20.45V1050.66c0-7.21,4.93-13.06,11-13.06h96.39c6.09,0,11,5.85,11,13.06v124.86h20.44V1033.65C1296.93,1025.06,1290.29,1018.1,1282.1,1018.1Z"/><path class="cls-6" d="M1121,978.33v162.49a23.12,23.12,0,0,0,46.23,0V978.33Z"/><path class="cls-8" d="M1121,1053.83l46.23-5.33-1.5,96a22.63,22.63,0,0,1-5.17,11,21.73,21.73,0,0,1-38-10.5Z"/><path class="cls-2" d="M1121,978.33v162.49a23.12,23.12,0,0,0,46.23,0V978.33Z"/><path class="cls-4" d="M1209,1018.1H1079.32c-8.19,0-14.83,7-14.83,15.55v141.87h20.44V1050.66c0-7.21,4.94-13.06,11-13.06h96.39c6.09,0,11,5.85,11,13.06v124.86h20.45V1033.65C1223.82,1025.06,1217.18,1018.1,1209,1018.1Z"/><path class="cls-7" d="M1035.33,1053.83l46.23-5.33-1.5,96a22.63,22.63,0,0,1-5.17,11,21.73,21.73,0,0,1-38-10.5Z"/><path class="cls-2" d="M1035.33,978.33v162.49a23.12,23.12,0,0,0,46.23,0V978.33Z"/><path class="cls-4" d="M1122.77,1018.1H993.1c-8.19,0-14.83,7-14.83,15.55v141.87h20.44V1050.66c0-7.21,4.94-13.06,11-13.06h96.39c6.09,0,11,5.85,11,13.06v124.86h20.45V1033.65C1137.6,1025.06,1131,1018.1,1122.77,1018.1Z"/><rect class="cls-4" x="1335.48" y="1209.85" width="36.92" height="555.15" transform="translate(2707.87 2974.85) rotate(180)"/><rect class="cls-4" x="466.67" y="1209.85" width="30" height="555.15" transform="translate(963.33 2974.85) rotate(180)"/><rect class="cls-8" x="228" y="1175.52" width="1185" height="45" rx="6.39" transform="translate(1641 2396.04) rotate(180)"/><rect class="cls-4" x="228" y="1175.52" width="334.22" height="45" rx="6.39" transform="translate(790.22 2396.04) rotate(180)"/><path class="cls-7" d="M804.09,375.63l89.75-.49q11.63,21.47,23.27,42.92a13.45,13.45,0,0,1,4.67,8.88,11.13,11.13,0,0,1-2.45,8.45,10.84,10.84,0,0,1-7.33,3.55l-127.33-.44a10.28,10.28,0,0,1-6.45-15.11Q791.17,399.51,804.09,375.63Z"/><path class="cls-2" d="M921.57,423.18l-31.38-54.35-24.25-42V292h3a4.85,4.85,0,0,0,4.85-4.86V275.11a4.85,4.85,0,0,0-4.85-4.85H829.28a4.86,4.86,0,0,0-4.86,4.85v12.07a4.86,4.86,0,0,0,4.86,4.86h3v34.78l-24.25,42-31.38,54.35A11.22,11.22,0,0,0,786.36,440h125.5A11.21,11.21,0,0,0,921.57,423.18Z"/><path class="cls-11" d="M959.21,375.63l89.74-.49,23.27,42.92a13.4,13.4,0,0,1,4.67,8.88,11.13,11.13,0,0,1-2.45,8.45,10.84,10.84,0,0,1-7.33,3.55l-127.33-.44a10.28,10.28,0,0,1-6.45-15.11Z"/><path class="cls-2" d="M1076.68,423.18l-31.37-54.35-24.26-42V292h3a4.85,4.85,0,0,0,4.85-4.86V275.11a4.85,4.85,0,0,0-4.85-4.85H984.39a4.86,4.86,0,0,0-4.86,4.85v12.07a4.86,4.86,0,0,0,4.86,4.86h3v34.78l-24.25,42-31.38,54.35A11.22,11.22,0,0,0,941.47,440H1067A11.21,11.21,0,0,0,1076.68,423.18Z"/><rect class="cls-6" x="1221.22" y="214.04" width="49.15" height="71.27"/><rect class="cls-6" x="1227.59" y="92" width="36.41" height="122.65"/><path class="cls-6" d="M1354.26,387h-85.43a92.91,92.91,0,0,0-14.09-184.73v25.5a67.4,67.4,0,0,1,0,134.79V387h-99.51a11.08,11.08,0,0,0-11.08,11.08v29.75a11.08,11.08,0,0,0,11.08,11.08h199a11.07,11.07,0,0,0,11.07-11.08V398.11A11.07,11.07,0,0,0,1354.26,387Z"/><ellipse class="cls-6" cx="1245.79" cy="214.04" rx="27.61" ry="27.63"/><ellipse class="cls-6" cx="1245.79" cy="381.21" rx="27.61" ry="27.63"/><rect class="cls-6" x="1191.03" y="303.9" width="140.78" height="10.02" rx="3"/><path class="cls-6" d="M1743.89,1565.58c-47.43,0-85.88,28.5-85.88,63.65h171.76C1829.77,1594.08,1791.32,1565.58,1743.89,1565.58Z"/><rect class="cls-6" x="1734.82" y="909.14" width="18.14" height="656.44"/><rect class="cls-6" x="1655.75" y="715.95" width="18.14" height="231.16" transform="translate(-100.37 1420.75) rotate(-45)"/><path class="cls-6" d="M1532.3,868.5l21.06-78.6,3.6-13.45,82.58-82.57a8.72,8.72,0,0,0,0-12.32l-51.35-51.35a8.7,8.7,0,0,0-12.32,0l-82.58,82.57-13.45,3.61-78.6,21.06a13,13,0,0,0-5.85,21.82l57.54,57.54,57.54,57.54A13.05,13.05,0,0,0,1532.3,868.5Z"/><circle class="cls-6" cx="1584.54" cy="750" r="16.5"/><circle class="cls-6" cx="1743.89" cy="912.59" r="16.5"/><path class="cls-6" d="M1493.29,712.78l51.8,51.8"/><rect class="cls-2" x="756.22" y="477.04" width="57" height="187.11" rx="8.44"/><circle class="cls-2" cx="784.72" cy="508.61" r="11.81"/><rect class="cls-2" x="813.22" y="477.04" width="57" height="187.11" rx="8.44"/><circle class="cls-2" cx="841.72" cy="508.61" r="11.81"/><rect class="cls-2" x="888.36" y="474.87" width="57" height="187.11" rx="8.44" transform="matrix(0.99, -0.17, 0.17, 0.99, -82.77, 162.87)"/><circle class="cls-2" cx="906.4" cy="507.33" r="11.81"/></g></svg>