<svg width="571" height="571" viewBox="0 0 571 571" fill="none" xmlns="http://www.w3.org/2000/svg">
<path d="M570.681 0H0V570.681H570.681V0Z" fill="white"/>
<path d="M421.448 125.55H222.566C214.529 125.55 208.013 132.065 208.013 140.102V450.333C208.013 458.37 214.529 464.885 222.566 464.885H421.448C429.485 464.885 436 458.37 436 450.333V140.102C436 132.065 429.485 125.55 421.448 125.55Z" stroke="black" stroke-width="1.4267" stroke-linecap="round" stroke-linejoin="round"/>
<path d="M208.013 189.56H312.927" stroke="black" stroke-width="1.4267" stroke-linecap="round" stroke-linejoin="round"/>
<path d="M208.013 293.045H312.927" stroke="black" stroke-width="1.4267" stroke-linecap="round" stroke-linejoin="round"/>
<path d="M323.793 125.55V464.914" stroke="black" stroke-width="1.4267" stroke-linecap="round" stroke-linejoin="round"/>
<path d="M269.361 376.364L436 376.524" stroke="black" stroke-width="1.4267" stroke-linecap="round" stroke-linejoin="round"/>
<path d="M340.032 408.037H336.97C335.289 408.037 333.925 409.4 333.925 411.082V423.825C333.925 425.506 335.289 426.869 336.97 426.869H340.032C341.713 426.869 343.076 425.506 343.076 423.825V411.082C343.076 409.4 341.713 408.037 340.032 408.037Z" stroke="black" stroke-width="1.4267" stroke-linecap="round" stroke-linejoin="round"/>
<path d="M305.272 408.037H302.21C300.528 408.037 299.165 409.4 299.165 411.082V423.825C299.165 425.506 300.528 426.869 302.21 426.869H305.272C306.953 426.869 308.316 425.506 308.316 423.825V411.082C308.316 409.4 306.953 408.037 305.272 408.037Z" stroke="black" stroke-width="1.4267" stroke-linecap="round" stroke-linejoin="round"/>
<path d="M89.2174 402.564C69.6744 402.564 53.8352 417.633 53.8352 436.234V495.377H60.3666V440.42C60.3666 423.149 73.2811 409.144 89.2174 409.144C105.154 409.144 118.068 423.149 118.068 440.42V495.377H124.6V436.223C124.6 417.633 108.758 402.564 89.2174 402.564Z" fill="black"/>
<path d="M144.953 402.564C125.413 402.564 109.571 417.633 109.571 436.234V495.377H116.102V440.42C116.102 423.149 129.02 409.144 144.953 409.144C160.886 409.144 173.804 423.149 173.804 440.42V495.377H180.335V436.223C180.335 417.633 164.493 402.564 144.953 402.564Z" fill="black"/>
<path d="M65.0348 391.253H126.335C134.832 391.253 141.72 384.365 141.72 375.868V314.568C141.72 306.071 134.832 299.182 126.335 299.182H65.0348C56.5376 299.182 49.6493 306.071 49.6493 314.568L49.6493 375.868C49.6493 384.365 56.5376 391.253 65.0348 391.253Z" fill="black"/>
<path d="M59.7988 403.429H147.164C151.09 403.429 154.272 400.246 154.272 396.321V392.178C154.272 388.252 151.09 385.07 147.164 385.07H59.7988C55.8733 385.07 52.691 388.252 52.691 392.178V396.321C52.691 400.246 55.8733 403.429 59.7988 403.429Z" fill="black"/>
<path d="M316.457 495.368H326.992V345.222H316.457V495.368Z" fill="#275F7C"/>
<path d="M80.6544 495.368H89.2146L89.2146 345.222H80.6544L80.6544 495.368Z" fill="#275F7C"/>
<path d="M283.437 208.678L298.943 204.113L307.977 195.935L326.621 189.846L343.644 222.66C340.821 224.36 337.863 225.824 334.799 227.037C323.411 231.542 312.893 231.648 305.979 231.032L291.239 235.785C288.638 226.752 286.038 217.716 283.437 208.678Z" fill="#FF9E9F"/>
<path d="M331.28 199.262C330.544 199.485 326.498 200.769 324.718 204.78C324.432 205.454 323.063 208.507 324.321 210.507C325.836 212.921 330.941 213.466 336.511 210.676" stroke="black" stroke-width="1.4267" stroke-linecap="round" stroke-linejoin="round"/>
<path d="M336.742 210.838C336.006 211.058 331.959 212.345 330.179 216.354C329.879 217.03 328.524 220.08 329.782 222.081C331.297 224.495 336.402 225.042 341.972 222.252" stroke="black" stroke-width="1.4267" stroke-linecap="round" stroke-linejoin="round"/>
<path d="M318.748 172.177L341.453 222.112C343.236 226.033 347.371 227.993 350.686 226.483C354.002 224.974 355.252 220.574 353.46 216.653L330.755 166.719L318.748 172.177Z" fill="white" stroke="black" stroke-width="1.4267" stroke-linecap="round" stroke-linejoin="round"/>
<path d="M329.297 195.378L340.56 188.282L353.583 217.957C353.972 219.253 354.04 220.624 353.779 221.952C353.3 224.184 351.708 226.232 349.282 226.655C346.811 227.088 344.106 225.73 342.434 223.213L329.297 195.378Z" fill="#F4E12C"/>
<path d="M318.748 172.177L341.453 222.112C343.236 226.033 347.371 227.993 350.686 226.483C354.002 224.974 355.252 220.574 353.46 216.653L330.755 166.719L318.748 172.177Z" stroke="black" stroke-width="1.4267" stroke-linecap="round" stroke-linejoin="round"/>
<path d="M298.943 204.113C299.949 201.013 301.494 198.115 303.508 195.552C306.119 192.254 307.914 191.601 317.107 185.566C325.477 180.073 327.785 178.124 329.283 179.1C331.383 180.467 329.779 186.208 329.662 186.613C326.997 195.864 316.337 199.927 313.304 200.974" fill="#FF9E9F"/>
<path d="M329.283 179.1C331.383 180.466 329.779 186.207 329.662 186.613C326.997 195.863 316.337 199.927 313.304 200.974" stroke="black" stroke-width="1.4267" stroke-linecap="round" stroke-linejoin="round"/>
<path d="M344.129 184.562C347.022 182.512 348.039 178.974 346.399 176.659C344.76 174.345 341.085 174.13 338.192 176.179C335.298 178.228 334.282 181.766 335.921 184.081C337.561 186.396 341.236 186.611 344.129 184.562Z" fill="#FF9E9F"/>
<path d="M233.845 493.146C233.112 491.587 232.138 490.154 230.957 488.9C226.329 484.117 219.259 483.672 208.33 477.283C203.633 474.541 197.51 470.15 191.267 462.968C190.718 462.329 189.949 461.922 189.112 461.827L154.706 457.972C154.234 457.919 153.757 457.966 153.305 458.112C152.853 458.257 152.437 458.497 152.084 458.815C151.732 459.133 151.451 459.522 151.26 459.956C151.069 460.391 150.972 460.861 150.977 461.336C151.062 470.489 151.111 478.259 151.325 498.576C151.345 500.396 151.325 501.866 151.293 502.713H169.016V496.889H191.369V502.702L235.785 502.673C235.949 499.385 235.282 496.108 233.845 493.146Z" fill="black"/>
<path d="M300.298 493.145C299.565 491.587 298.591 490.154 297.41 488.9C292.779 484.117 285.711 483.672 274.78 477.283C270.086 474.541 263.963 470.15 257.72 462.968C257.171 462.33 256.401 461.922 255.565 461.827L221.159 457.972C220.688 457.918 220.21 457.966 219.759 458.11C219.307 458.255 218.891 458.494 218.539 458.812C218.186 459.129 217.905 459.518 217.714 459.952C217.523 460.386 217.426 460.856 217.429 461.33C217.515 470.484 217.564 478.254 217.778 498.57C217.798 500.39 217.778 501.86 217.746 502.707H235.469V496.883H257.819V502.696L302.238 502.667C302.401 499.381 301.734 496.106 300.298 493.145Z" fill="black"/>
<path d="M271.835 416.745V458.976C264.543 462.173 256.758 464.102 248.817 464.683C232.792 465.824 220.283 461.119 214.005 458.214C191.578 466.771 166.844 467.108 144.191 459.167V416.554L216.859 369.95L271.835 416.745Z" fill="#0EBDFF"/>
<path d="M154.227 462.109C174.091 466.851 194.924 465.494 214.005 458.214V385.07" stroke="black" stroke-width="1.4267" stroke-linecap="round" stroke-linejoin="round"/>
<path d="M208.33 477.284C212.041 479.378 215.883 481.232 219.832 482.833C223.256 484.212 226.232 485.182 229.534 487.915C231.124 489.203 232.472 490.765 233.514 492.526C235.931 496.632 235.917 500.738 235.777 502.656" stroke="white" stroke-width="1.4267" stroke-linecap="round" stroke-linejoin="round"/>
<path d="M155.756 222.306C172.694 222.12 186.544 220.782 200.786 227.322C201.242 227.531 201.616 227.71 201.861 227.827L283.249 205.066L296.945 252.241L219.955 274.937C222.158 296.412 224.359 317.887 226.56 339.364C229.796 339.458 234.219 340.055 239.401 341.224C243.681 342.192 250.335 344.272 256.807 349.214C270.16 359.415 273.67 374.895 276.78 388.591C279.285 399.724 280.15 411.163 279.348 422.547H227.639C225.657 409.946 222.165 397.631 217.238 385.866C216.126 392.52 214.713 399.562 212.927 406.916C211.6 412.391 210.168 417.604 208.678 422.547H137.534V392.586C132.213 390.805 122.545 386.719 114.136 377.463C99.0503 360.862 99.6324 340.425 99.8692 335.9C95.201 329.771 88.5497 319.265 85.8875 304.986C80.3576 275.336 93.9455 239.929 120.128 227.374C123.096 225.95 133.85 222.546 155.756 222.306Z" fill="white"/>
<path d="M214.385 240.827C215.979 249.759 217.438 259.016 218.762 268.6C220.722 282.947 222.143 296.731 223.136 309.88" stroke="black" stroke-width="1.4267" stroke-linecap="round" stroke-linejoin="round"/>
<path d="M196.514 305.126C200.951 304.347 215.392 302.381 230.809 310.451C246.123 318.466 252.743 331.326 254.649 335.424H195.935L196.514 305.126Z" fill="#FF9E9F"/>
<path d="M125.835 259.143C126.724 264.795 127.548 270.597 128.309 276.549C128.91 281.288 129.449 285.948 129.924 290.531L195.806 290.497C196.423 299.222 196.737 308.579 196.6 318.494C196.52 324.355 196.286 330.002 195.935 335.424" stroke="black" stroke-width="1.4267" stroke-linecap="round" stroke-linejoin="round"/>
<path d="M139.437 225.376L125.741 240.882L145.809 242.497C144.16 247.443 142.511 252.388 140.864 257.334C157.886 263.911 172.527 275.472 182.872 290.505" stroke="black" stroke-width="1.4267" stroke-linecap="round" stroke-linejoin="round"/>
<path d="M182.11 227.596L194.793 237.118L188.579 239.655L203.416 252.843C204.244 268.318 201.807 283.795 196.263 298.266" stroke="black" stroke-width="1.4267" stroke-linecap="round" stroke-linejoin="round"/>
<path d="M208.678 422.547C210.37 416.857 211.988 410.868 213.483 404.587C215.849 394.652 217.624 385.184 218.95 376.321" stroke="black" stroke-width="1.4267" stroke-linecap="round" stroke-linejoin="round"/>
<path d="M172.537 229.245C163.192 223.576 154.455 222.08 150.754 225.704C149.986 226.477 149.43 227.434 149.139 228.484C166.37 242.128 179.838 259.941 188.271 280.239C189.532 269.408 188.114 258.434 184.139 248.28C181.384 241.321 177.46 234.884 172.537 229.245Z" fill="#0EBDFF"/>
<path d="M176.095 233.742L174.343 219.11C175.48 218.985 176.599 218.726 177.676 218.34C179.087 217.824 180.412 217.096 181.605 216.183C183.779 214.425 184.764 212.008 185.471 209.725C187.586 202.903 188.958 191.649 186.422 181.303C185.697 178.344 184.598 175.242 181.828 173.15C181.171 172.656 180.457 172.243 179.702 171.918L149.644 172.68L133.793 192.334C131.439 198.212 133.223 204.558 137.597 207.554C141.971 210.55 147.153 208.981 147.869 208.738C148.291 215.318 148.715 221.898 149.139 228.478L156.937 234.436C158.627 234.63 160.424 234.767 162.316 234.824C166.935 234.962 171.555 234.599 176.095 233.742Z" fill="#FF9E9F"/>
<path d="M192.066 290.5C187.145 275.239 179.462 261.014 169.398 248.532C163.403 241.124 156.609 234.401 149.139 228.484" stroke="black" stroke-width="1.4267" stroke-linecap="round" stroke-linejoin="round"/>
<path d="M139.218 196.933L145.932 197.881L141.278 202.794" stroke="black" stroke-width="1.4267" stroke-linecap="round" stroke-linejoin="round"/>
<path d="M174.691 189.486C174.434 190.7 174.413 191.953 174.628 193.175C175.27 196.791 177.827 198.908 178.623 199.519C177.074 200.886 175.261 201.921 173.296 202.56" stroke="black" stroke-width="1.4267" stroke-linecap="round" stroke-linejoin="round"/>
<path d="M176.817 208.113C175.725 208.986 174.434 209.574 173.059 209.825C171.005 210.166 168.897 209.761 167.115 208.684" stroke="black" stroke-width="1.4267" stroke-linecap="round" stroke-linejoin="round"/>
<path d="M162.929 197.598C166.842 197.598 170.014 194.426 170.014 190.513C170.014 186.6 166.842 183.428 162.929 183.428C159.016 183.428 155.844 186.6 155.844 190.513C155.844 194.426 159.016 197.598 162.929 197.598Z" stroke="black" stroke-width="1.4267" stroke-linecap="round" stroke-linejoin="round"/>
<path d="M182.872 197.598C186.785 197.598 189.957 194.426 189.957 190.513C189.957 186.6 186.785 183.428 182.872 183.428C178.959 183.428 175.787 186.6 175.787 190.513C175.787 194.426 178.959 197.598 182.872 197.598Z" stroke="black" stroke-width="1.4267" stroke-linecap="round" stroke-linejoin="round"/>
<path d="M169.969 189.694C171.03 189.129 172.222 188.854 173.424 188.895C174.266 188.931 175.094 189.125 175.864 189.466" stroke="black" stroke-width="1.4267" stroke-linecap="round" stroke-linejoin="round"/>
<path d="M147.11 190.608C146.705 190.251 143.971 187.922 140.134 188.45C135.485 189.092 133.482 193.318 133.357 193.586C131.466 190.013 130.524 186.015 130.623 181.973C130.937 171.986 137.871 165.623 139.811 163.997C150.988 154.563 167.133 157.836 174.723 162.55C177.625 164.373 180.136 166.754 182.11 169.555C183.731 172.066 184.821 174.882 185.312 177.83C182.374 178.131 179.384 178.395 176.34 178.623C165.58 179.419 154.784 179.609 144.003 179.194L149.456 190.482L147.11 190.608Z" fill="black"/>
<path d="M217.238 315.903C220.762 317.224 224.09 319.016 227.131 321.231C232.243 324.981 236.446 329.831 239.432 335.424" stroke="black" stroke-width="1.4267" stroke-linecap="round" stroke-linejoin="round"/>
<path d="M344.335 300.7L357.526 299.18L357.098 326.572C356.902 327.733 356.392 328.819 355.623 329.711C354.857 330.612 353.85 331.276 352.72 331.624C351.59 331.972 350.384 331.989 349.245 331.674C348.105 331.359 347.079 330.725 346.288 329.846C345.497 328.968 344.974 327.881 344.78 326.715L344.335 300.7Z" fill="#F16D55"/>
<path d="M344.335 279.157V325.522C344.371 327.248 345.081 328.89 346.314 330.098C347.547 331.306 349.204 331.982 350.93 331.982C352.656 331.982 354.313 331.306 355.546 330.098C356.779 328.89 357.49 327.248 357.526 325.522V279.157H344.335Z" stroke="black" stroke-width="1.4267" stroke-linecap="round" stroke-linejoin="round"/>
<path d="M365.835 290.505H328.835C326.498 290.505 324.603 292.503 324.603 294.942V335.424H330.439V299.796C330.439 297.739 331.845 296.069 333.577 296.069H361.081C362.819 296.069 364.22 297.739 364.22 299.796V335.424H370.052V294.942C370.067 292.491 368.172 290.505 365.835 290.505Z" fill="#275F7C"/>
<path d="M319.867 279.157V325.522C319.903 327.248 320.613 328.89 321.846 330.098C323.079 331.306 324.736 331.982 326.462 331.982C328.188 331.982 329.845 331.306 331.078 330.098C332.311 328.89 333.022 327.248 333.058 325.522V279.157H319.867Z" fill="white" stroke="black" stroke-width="1.4267" stroke-linecap="round" stroke-linejoin="round"/>
<path d="M319.867 300.7L333.058 299.18L332.63 326.572C332.434 327.733 331.924 328.819 331.155 329.711C330.39 330.612 329.382 331.276 328.252 331.624C327.122 331.972 325.917 331.989 324.777 331.674C323.637 331.359 322.611 330.725 321.82 329.846C321.029 328.968 320.506 327.881 320.312 326.715L319.867 300.7Z" fill="#0EBDFF"/>
<path d="M319.867 279.157V325.522C319.903 327.248 320.613 328.89 321.846 330.098C323.079 331.306 324.736 331.982 326.462 331.982C328.188 331.982 329.845 331.306 331.078 330.098C332.311 328.89 333.022 327.248 333.058 325.522V279.157H319.867Z" stroke="black" stroke-width="1.4267" stroke-linecap="round" stroke-linejoin="round"/>
<path d="M344.977 290.505H307.974C305.637 290.505 303.742 292.503 303.742 294.942V335.424H309.575V299.796C309.575 297.739 310.984 296.069 312.713 296.069H340.217C341.955 296.069 343.356 297.739 343.356 299.796V335.424H349.191V294.942C349.205 292.491 347.311 290.505 344.977 290.505Z" fill="#275F7C"/>
<path d="M295.422 300.7L308.613 299.18L308.185 326.572C307.989 327.733 307.478 328.819 306.71 329.711C305.944 330.612 304.937 331.276 303.807 331.624C302.677 331.972 301.471 331.989 300.332 331.674C299.192 331.359 298.166 330.725 297.375 329.846C296.584 328.968 296.061 327.881 295.867 326.715L295.422 300.7Z" fill="#F4E12C"/>
<path d="M295.422 279.157V325.522C295.457 327.248 296.168 328.89 297.401 330.098C298.634 331.306 300.291 331.982 302.017 331.982C303.743 331.982 305.4 331.306 306.633 330.098C307.866 328.89 308.577 327.248 308.613 325.522V279.157H295.422Z" stroke="black" stroke-width="1.4267" stroke-linecap="round" stroke-linejoin="round"/>
<path d="M320.372 290.505H283.372C281.035 290.505 279.14 292.503 279.14 294.942V335.424H284.972V299.796C284.972 297.739 286.382 296.069 288.111 296.069H315.615C317.353 296.069 318.754 297.739 318.754 299.796V335.424H324.589V294.942C324.603 292.491 322.72 290.505 320.372 290.505Z" fill="#275F7C"/>
<path d="M381.064 503.626H391.598V345.219H381.064V503.626Z" fill="#275F7C"/>
<path d="M133.157 503.626H141.717L141.717 345.219H133.157L133.157 503.626Z" fill="#275F7C"/>
<path d="M66.881 348.264L401.363 348.264C402.37 348.264 403.186 347.447 403.186 346.44V337.247C403.186 336.24 402.37 335.423 401.363 335.423L66.881 335.423C65.8739 335.423 65.0576 336.24 65.0576 337.247V346.44C65.0576 347.447 65.8739 348.264 66.881 348.264Z" fill="#0EBDFF"/>
<path d="M66.8809 348.264H158.601C159.608 348.264 160.424 347.447 160.424 346.44V337.247C160.424 336.24 159.608 335.423 158.601 335.423H66.8809C65.874 335.423 65.0576 336.24 65.0576 337.247V346.44C65.0576 347.447 65.874 348.264 66.8809 348.264Z" fill="#275F7C"/>
<path d="M229.439 107.183L255.049 107.043C257.261 111.127 259.474 115.209 261.689 119.29C262.443 119.931 262.92 120.838 263.021 121.823C263.075 122.252 263.04 122.686 262.92 123.101C262.8 123.515 262.596 123.901 262.322 124.234C261.783 124.831 261.033 125.194 260.231 125.247L223.898 125.122C223.457 125.013 223.047 124.803 222.7 124.509C222.354 124.214 222.081 123.843 221.902 123.425C221.724 123.007 221.645 122.553 221.672 122.1C221.699 121.646 221.831 121.204 222.058 120.81C224.521 116.268 226.982 111.725 229.439 107.183Z" fill="#F4E12C"/>
<path d="M262.961 120.75L254.007 105.242L247.088 93.2578V83.3194H247.944C248.126 83.3194 248.306 83.2835 248.474 83.2137C248.642 83.144 248.795 83.0418 248.923 82.913C249.052 82.7842 249.154 82.6313 249.223 82.4631C249.293 82.2948 249.328 82.1146 249.328 81.9326V78.5C249.328 78.1329 249.182 77.7809 248.922 77.5214C248.663 77.2619 248.311 77.1161 247.944 77.1161H236.627C236.26 77.1161 235.908 77.2618 235.648 77.5212C235.388 77.7807 235.241 78.1327 235.24 78.5V81.944C235.24 82.3118 235.387 82.6645 235.647 82.9246C235.907 83.1847 236.259 83.3308 236.627 83.3308H237.483V93.2549L230.564 105.239L221.61 120.747C221.329 121.234 221.181 121.786 221.181 122.348C221.181 122.91 221.328 123.462 221.609 123.948C221.89 124.435 222.294 124.839 222.78 125.12C223.267 125.401 223.819 125.549 224.38 125.55H260.191C260.752 125.55 261.304 125.402 261.791 125.122C262.277 124.841 262.681 124.437 262.962 123.95C263.243 123.464 263.391 122.912 263.391 122.35C263.39 121.788 263.242 121.237 262.961 120.75V120.75Z" stroke="black" stroke-width="1.4267" stroke-linecap="round" stroke-linejoin="round"/>
<path d="M273.702 107.183L299.308 107.043L305.948 119.29C306.703 119.93 307.181 120.838 307.28 121.823C307.334 122.252 307.299 122.686 307.179 123.101C307.059 123.515 306.856 123.901 306.581 124.234C306.042 124.831 305.292 125.194 304.49 125.247L268.157 125.122C267.716 125.013 267.306 124.803 266.959 124.509C266.613 124.214 266.34 123.843 266.161 123.425C265.983 123.007 265.904 122.553 265.931 122.1C265.958 121.646 266.09 121.204 266.317 120.81L273.702 107.183Z" fill="#F16D55"/>
<path d="M307.22 120.75L298.269 105.242L291.347 93.2578V83.3194H292.203C292.385 83.3194 292.565 83.2835 292.733 83.2137C292.901 83.144 293.054 83.0418 293.183 82.913C293.311 82.7842 293.413 82.6313 293.482 82.4631C293.552 82.2948 293.587 82.1146 293.587 81.9326V78.5C293.587 78.1329 293.441 77.7809 293.182 77.5214C292.922 77.2619 292.57 77.1161 292.203 77.1161H280.886C280.519 77.1161 280.167 77.2618 279.907 77.5212C279.647 77.7807 279.5 78.1327 279.5 78.5V81.944C279.5 82.3118 279.646 82.6645 279.906 82.9246C280.166 83.1847 280.519 83.3308 280.886 83.3308H281.742V93.2549L274.823 105.239L265.869 120.747C265.588 121.234 265.44 121.786 265.44 122.348C265.44 122.91 265.588 123.462 265.868 123.948C266.149 124.435 266.553 124.839 267.039 125.12C267.526 125.401 268.078 125.549 268.64 125.55H304.458C305.019 125.548 305.57 125.4 306.055 125.118C306.541 124.837 306.944 124.433 307.223 123.947C307.503 123.46 307.65 122.909 307.65 122.348C307.649 121.787 307.501 121.236 307.22 120.75V120.75Z" stroke="black" stroke-width="1.4267" stroke-linecap="round" stroke-linejoin="round"/>
<path d="M362.488 61.0743H348.464V81.4105H362.488V61.0743Z" fill="white" stroke="black" stroke-width="1.4267" stroke-linecap="round" stroke-linejoin="round"/>
<path d="M360.67 26.2513H350.281V61.2484H360.67V26.2513Z" fill="white" stroke="black" stroke-width="1.4267" stroke-linecap="round" stroke-linejoin="round"/>
<path d="M386.425 110.427H362.049C368.648 109.407 374.619 105.935 378.769 100.704C382.919 95.4728 384.942 88.8685 384.434 82.2106C383.926 75.5527 380.925 69.3316 376.029 64.7906C371.134 60.2496 364.705 57.723 358.028 57.7159V64.992C363.088 65.0537 367.919 67.1069 371.476 70.7066C375.032 74.3063 377.026 79.1625 377.026 84.2226C377.026 89.2826 375.032 94.1388 371.476 97.7385C367.919 101.338 363.088 103.391 358.028 103.453V110.427H329.634C328.795 110.427 327.991 110.76 327.398 111.353C326.805 111.946 326.472 112.75 326.472 113.588V122.077C326.472 122.916 326.805 123.72 327.398 124.313C327.991 124.906 328.795 125.239 329.634 125.239H386.417C386.832 125.239 387.243 125.157 387.626 124.998C388.01 124.839 388.358 124.606 388.651 124.313C388.945 124.019 389.177 123.67 389.336 123.287C389.494 122.903 389.576 122.492 389.575 122.077V113.597C389.577 113.182 389.497 112.771 389.339 112.387C389.182 112.003 388.95 111.653 388.657 111.359C388.365 111.065 388.017 110.831 387.634 110.671C387.251 110.511 386.84 110.428 386.425 110.427Z" fill="white" stroke="black" stroke-width="1.4267" stroke-linecap="round" stroke-linejoin="round"/>
<path d="M355.474 68.9583C359.825 68.9583 363.353 65.4285 363.353 61.0743C363.353 56.7201 359.825 53.1904 355.474 53.1904C351.123 53.1904 347.596 56.7201 347.596 61.0743C347.596 65.4285 351.123 68.9583 355.474 68.9583Z" fill="white" stroke="black" stroke-width="1.4267" stroke-linecap="round" stroke-linejoin="round"/>
<path d="M355.474 116.659C359.825 116.659 363.353 113.129 363.353 108.775C363.353 104.42 359.825 100.891 355.474 100.891C351.123 100.891 347.596 104.42 347.596 108.775C347.596 113.129 351.123 116.659 355.474 116.659Z" fill="white" stroke="black" stroke-width="1.4267" stroke-linecap="round" stroke-linejoin="round"/>
<path d="M379.163 86.715H340.705C340.232 86.715 339.849 87.0982 339.849 87.571V88.7181C339.849 89.1908 340.232 89.5741 340.705 89.5741H379.163C379.636 89.5741 380.019 89.1908 380.019 88.7181V87.571C380.019 87.0982 379.636 86.715 379.163 86.715Z" fill="white" stroke="black" stroke-width="1.4267" stroke-linecap="round" stroke-linejoin="round"/>
<path d="M497.602 446.724C484.069 446.724 473.097 454.856 473.097 464.885H522.108C522.108 454.856 511.136 446.724 497.602 446.724Z" fill="white" stroke="black" stroke-width="1.4267" stroke-linecap="round" stroke-linejoin="round"/>
<path d="M500.191 259.415H495.014V446.723H500.191V259.415Z" fill="white" stroke="black" stroke-width="1.4267" stroke-linecap="round" stroke-linejoin="round"/>
<path d="M453.549 212.118L449.889 215.778L496.53 262.418L500.19 258.758L453.549 212.118Z" fill="white" stroke="black" stroke-width="1.4267" stroke-linecap="round" stroke-linejoin="round"/>
<path d="M437.227 247.818L443.237 225.391L444.264 221.553L467.827 197.992C468.293 197.526 468.554 196.894 468.554 196.234C468.554 195.575 468.293 194.943 467.827 194.477L453.175 179.825C452.944 179.593 452.67 179.41 452.369 179.285C452.067 179.16 451.744 179.095 451.417 179.095C451.091 179.095 450.767 179.16 450.466 179.285C450.164 179.41 449.89 179.593 449.66 179.825L426.096 203.385L422.258 204.415L399.831 210.424C399.197 210.59 398.619 210.921 398.155 211.382C397.69 211.844 397.356 212.42 397.187 213.052C397.017 213.685 397.018 214.351 397.189 214.983C397.36 215.615 397.696 216.19 398.161 216.651L414.58 233.069L430.998 249.488C431.461 249.95 432.036 250.282 432.667 250.451C433.299 250.62 433.963 250.62 434.595 250.451C435.226 250.281 435.801 249.949 436.263 249.487C436.726 249.025 437.058 248.45 437.227 247.818Z" fill="white" stroke="black" stroke-width="1.4267" stroke-linecap="round" stroke-linejoin="round"/>
<path d="M452.133 218.714C454.734 218.714 456.842 216.606 456.842 214.005C456.842 211.405 454.734 209.297 452.133 209.297C449.533 209.297 447.425 211.405 447.425 214.005C447.425 216.606 449.533 218.714 452.133 218.714Z" fill="white" stroke="black" stroke-width="1.4267" stroke-linecap="round" stroke-linejoin="round"/>
<path d="M497.602 265.107C500.203 265.107 502.311 262.999 502.311 260.399C502.311 257.799 500.203 255.691 497.602 255.691C495.002 255.691 492.894 257.799 492.894 260.399C492.894 262.999 495.002 265.107 497.602 265.107Z" fill="white" stroke="black" stroke-width="1.4267" stroke-linecap="round" stroke-linejoin="round"/>
<path d="M426.096 203.385L440.877 218.166L426.096 203.385Z" fill="white"/>
<path d="M426.096 203.385L440.877 218.166" stroke="black" stroke-width="1.4267" stroke-linecap="round" stroke-linejoin="round"/>
<path d="M229.636 136.119H218.188C216.858 136.119 215.78 137.197 215.78 138.527V187.101C215.78 188.431 216.858 189.509 218.188 189.509H229.636C230.966 189.509 232.045 188.431 232.045 187.101V138.527C232.045 137.197 230.966 136.119 229.636 136.119Z" stroke="black" stroke-width="1.4267" stroke-linecap="round" stroke-linejoin="round"/>
<path d="M223.912 148.497C225.774 148.497 227.282 146.988 227.282 145.127C227.282 143.266 225.774 141.757 223.912 141.757C222.051 141.757 220.543 143.266 220.543 145.127C220.543 146.988 222.051 148.497 223.912 148.497Z" stroke="black" stroke-width="1.4267" stroke-linecap="round" stroke-linejoin="round"/>
<path d="M245.901 136.119H234.453C233.123 136.119 232.045 137.197 232.045 138.527V187.101C232.045 188.431 233.123 189.509 234.453 189.509H245.901C247.231 189.509 248.309 188.431 248.309 187.101V138.527C248.309 137.197 247.231 136.119 245.901 136.119Z" stroke="black" stroke-width="1.4267" stroke-linecap="round" stroke-linejoin="round"/>
<path d="M240.177 148.497C242.038 148.497 243.547 146.988 243.547 145.127C243.547 143.266 242.038 141.757 240.177 141.757C238.316 141.757 236.807 143.266 236.807 145.127C236.807 146.988 238.316 148.497 240.177 148.497Z" stroke="black" stroke-width="1.4267" stroke-linecap="round" stroke-linejoin="round"/>
<path d="M264.085 135.17L252.752 137.116C251.435 137.342 250.551 138.593 250.777 139.91L259.034 187.998C259.261 189.314 260.511 190.198 261.828 189.972L273.161 188.026C274.478 187.8 275.362 186.549 275.136 185.233L266.879 137.145C266.653 135.828 265.402 134.944 264.085 135.17Z" stroke="black" stroke-width="1.43311" stroke-linecap="round" stroke-linejoin="round"/>
<path d="M258.633 148.132C260.494 148.132 262.003 146.623 262.003 144.762C262.003 142.901 260.494 141.392 258.633 141.392C256.772 141.392 255.263 142.901 255.263 144.762C255.263 146.623 256.772 148.132 258.633 148.132Z" stroke="black" stroke-width="1.4267" stroke-linecap="round" stroke-linejoin="round"/>
</svg>
