<svg width="571" height="571" viewBox="0 0 571 571" fill="none" xmlns="http://www.w3.org/2000/svg">
<path d="M570.701 0H0.0197754V570.681H570.701V0Z" fill="#F6F8FB"/>
<path d="M242.67 85.0771H161.3V185.802H242.67V85.0771Z" stroke="black" stroke-width="1.4267" stroke-linecap="round" stroke-linejoin="round"/>
<path d="M236.059 91.6685H167.911V179.208H236.059V91.6685Z" stroke="black" stroke-width="1.4267" stroke-linecap="round" stroke-linejoin="round"/>
<path d="M201.987 122.908C207.647 122.908 212.236 118.319 212.236 112.658C212.236 106.998 207.647 102.409 201.987 102.409C196.326 102.409 191.737 106.998 191.737 112.658C191.737 118.319 196.326 122.908 201.987 122.908Z" stroke="black" stroke-width="1.4267" stroke-linecap="round" stroke-linejoin="round"/>
<path d="M218.345 135.44H185.625V139.609H218.345V135.44Z" stroke="black" stroke-width="1.4267" stroke-linecap="round" stroke-linejoin="round"/>
<path d="M225.068 148.694H178.905V152.786H225.068V148.694Z" stroke="black" stroke-width="1.4267" stroke-linecap="round" stroke-linejoin="round"/>
<path d="M48.1909 400.281H40.7721V492.218H48.1909V400.281Z" fill="black"/>
<path d="M106.386 256.344H33.3675C30.3654 256.344 27.9318 258.778 27.9318 261.78V411.709C27.9318 414.711 30.3654 417.145 33.3675 417.145H106.386C109.388 417.145 111.822 414.711 111.822 411.709V261.78C111.822 258.778 109.388 256.344 106.386 256.344Z" fill="black"/>
<path d="M122.936 256.376H49.9173C46.9152 256.376 44.4816 258.809 44.4816 261.811V390.851C44.4816 393.853 46.9152 396.287 49.9173 396.287H122.936C125.938 396.287 128.372 393.853 128.372 390.851V261.811C128.372 258.809 125.938 256.376 122.936 256.376Z" fill="black"/>
<path d="M512.834 491.436H518.147C518.147 473.765 502.051 459.193 481.287 457.144V369.619H471.214V457.144L470.946 457.17L470.732 457.144V457.195C450.187 459.421 434.354 473.902 434.354 491.436H439.667C440.323 477.047 451.651 465.085 466.86 461.535C454.624 467.565 446.426 478.582 446.426 491.188H451.742C452.362 477.549 462.585 466.104 476.584 461.921C491.034 465.887 501.646 477.523 502.265 491.436H507.578C507.578 479.058 499.674 468.21 487.807 462.112C501.934 466.246 512.206 477.743 512.834 491.436Z" stroke="black" stroke-width="1.4267" stroke-linecap="round" stroke-linejoin="round"/>
<path d="M529.871 296.038H468.572C460.074 296.038 453.186 302.926 453.186 311.424V372.723C453.186 381.22 460.074 388.109 468.572 388.109H529.871C538.369 388.109 545.257 381.22 545.257 372.723V311.424C545.257 302.926 538.369 296.038 529.871 296.038Z" fill="black"/>
<path d="M527.029 375.933H445.576C442.845 375.933 440.631 378.147 440.631 380.878V395.337C440.631 398.068 442.845 400.281 445.576 400.281H527.029C529.76 400.281 531.974 398.068 531.974 395.337V380.878C531.974 378.147 529.76 375.933 527.029 375.933Z" fill="black"/>
<path d="M325.542 342.072H316.982V492.218H325.542V342.072Z" fill="black"/>
<path d="M514.249 342.072H505.689V492.218H514.249V342.072Z" fill="black"/>
<path d="M411.272 201.242C407.763 209.909 404.254 218.575 400.746 227.239L422.94 228.252C423.701 222.675 424.462 217.096 425.223 211.514L411.272 201.242Z" fill="black"/>
<path d="M340.354 458.688C339.518 458.784 338.749 459.192 338.2 459.829C331.956 467.02 325.833 471.403 321.136 474.145C309.414 480.993 299.716 481.652 295.621 490.007C294.57 492.201 294.001 494.596 293.955 497.029C293.941 497.481 294.019 497.931 294.184 498.352C294.349 498.773 294.597 499.157 294.913 499.48C295.23 499.803 295.608 500.059 296.026 500.232C296.444 500.405 296.892 500.492 297.345 500.487L345.621 500.056C346.457 500.05 347.261 499.731 347.874 499.163C348.487 498.594 348.865 497.817 348.934 496.983C349.747 486.934 353.825 480.245 357.209 480.123C360.593 480 365.019 486.277 366.694 495.933C366.829 496.705 367.23 497.405 367.827 497.912C368.424 498.419 369.18 498.701 369.964 498.71L374.772 498.755C375.212 498.759 375.65 498.677 376.058 498.512C376.467 498.347 376.839 498.103 377.154 497.795C377.468 497.486 377.719 497.118 377.891 496.713C378.064 496.307 378.155 495.872 378.159 495.431C378.273 483.019 378.389 470.606 378.507 458.191C378.511 457.717 378.414 457.246 378.223 456.812C378.032 456.377 377.751 455.988 377.399 455.67C377.047 455.352 376.631 455.113 376.179 454.967C375.727 454.822 375.249 454.774 374.777 454.827L340.354 458.688Z" fill="black"/>
<path d="M405.791 458.688C404.956 458.785 404.187 459.192 403.637 459.829C397.394 467.02 391.27 471.402 386.576 474.145C374.855 480.993 365.153 481.652 361.058 490.007C360.006 492.201 359.439 494.596 359.395 497.029C359.381 497.481 359.459 497.93 359.623 498.351C359.787 498.772 360.035 499.156 360.351 499.479C360.667 499.802 361.045 500.057 361.462 500.231C361.879 500.404 362.327 500.491 362.779 500.487L411.059 500.056C411.894 500.05 412.698 499.731 413.31 499.162C413.923 498.594 414.3 497.816 414.369 496.983C415.185 486.934 419.262 480.245 422.643 480.122C426.025 480 430.456 486.277 432.131 495.933C432.265 496.705 432.666 497.406 433.263 497.913C433.861 498.421 434.617 498.702 435.401 498.71L440.206 498.755C440.647 498.76 441.084 498.677 441.493 498.513C441.902 498.348 442.274 498.104 442.589 497.795C442.904 497.487 443.154 497.119 443.327 496.713C443.499 496.307 443.589 495.872 443.593 495.431L443.941 458.191C443.946 457.716 443.85 457.246 443.659 456.811C443.468 456.376 443.187 455.987 442.834 455.669C442.482 455.351 442.066 455.111 441.614 454.966C441.161 454.821 440.684 454.774 440.212 454.827L405.791 458.688Z" fill="black"/>
<path d="M323.071 413.598V455.829C330.363 459.025 338.146 460.955 346.086 461.536C362.111 462.677 374.621 457.972 380.898 455.067C403.326 463.623 428.059 463.961 450.712 456.02V413.407L378.045 366.802L323.071 413.598Z" fill="#0EBDFF"/>
<path d="M440.68 458.962C420.814 463.704 399.98 462.347 380.898 455.067V381.923" stroke="black" stroke-width="1.4267" stroke-linecap="round" stroke-linejoin="round"/>
<path d="M386.576 474.136C382.865 476.232 379.022 478.086 375.071 479.686C371.647 481.064 368.671 482.034 365.37 484.771C363.221 486.546 362.103 488.101 361.389 489.379C360.469 491.032 359.866 492.843 359.609 494.718" stroke="white" stroke-width="1.4267" stroke-linecap="round" stroke-linejoin="round"/>
<path d="M439.159 219.159C424.156 218.936 406.39 218.916 391.481 230.45C390.368 231.306 385.96 234.795 381.226 241.19C362.037 267.11 358.944 311.837 358.273 326.159C357.355 330.13 356.435 334.103 355.514 338.077C351.234 339.044 344.583 341.125 338.108 346.067C324.754 356.268 321.248 371.747 318.135 385.444C315.63 396.577 314.764 408.016 315.566 419.399H367.279C369.258 406.799 372.749 394.483 377.677 382.719C378.789 389.373 380.202 396.415 381.988 403.771C383.318 409.244 384.747 414.457 386.237 419.399H457.384V389.438C462.702 387.658 472.37 383.572 480.781 374.315C495.867 357.714 495.288 337.278 495.049 332.753C499.717 326.626 506.368 316.117 509.03 301.839C514.56 272.189 500.972 236.781 474.789 224.226C465.002 219.538 456.385 219.427 439.159 219.159Z" fill="white"/>
<path d="M398.641 295.108L385.906 295.216C382.434 293.097 378.493 291.866 374.432 291.632C374.457 291.41 374.457 291.187 374.432 290.965C374.372 290.487 374.198 290.031 373.924 289.635C372.155 288.33 370.184 287.323 368.089 286.653C359.877 284.048 352.544 287.706 350.464 288.745C345.96 291.02 342.165 294.486 339.492 298.766C335.529 305.149 331.46 317.664 338.288 326.093C342.36 331.118 348.466 332.425 351.477 332.816L398.972 332.624C398.692 328.249 398.494 323.746 398.378 319.113C398.175 310.707 398.292 302.692 398.641 295.108Z" fill="#F16D55"/>
<path d="M393.77 232.567C390.266 236.847 378.932 251.816 379.948 272.766C380.355 280.581 382.384 288.227 385.906 295.216" stroke="black" stroke-width="1.4267" stroke-linecap="round" stroke-linejoin="round"/>
<path d="M469.068 255.996C468.184 261.65 467.36 267.452 466.597 273.402C465.992 278.142 465.453 282.803 464.98 287.384L399.097 287.352C398.481 296.075 398.167 305.431 398.304 315.347C398.386 321.208 398.608 326.851 398.972 332.276" stroke="black" stroke-width="1.4267" stroke-linecap="round" stroke-linejoin="round"/>
<path d="M455.469 222.229L469.165 237.734L449.094 239.349L454.042 254.187C437.019 260.762 422.376 272.324 412.032 287.358" stroke="black" stroke-width="1.4267" stroke-linecap="round" stroke-linejoin="round"/>
<path d="M412.793 224.449L400.113 233.959L406.325 236.496L391.487 249.687C390.659 265.162 393.097 280.637 398.64 295.108" stroke="black" stroke-width="1.4267" stroke-linecap="round" stroke-linejoin="round"/>
<path d="M386.225 419.399C384.533 413.709 382.918 407.72 381.42 401.44C379.055 391.504 377.28 382.037 375.953 373.174" stroke="black" stroke-width="1.4267" stroke-linecap="round" stroke-linejoin="round"/>
<path d="M422.369 226.098L445.767 223.562V225.336C428.368 236.604 414.505 252.558 405.774 271.359C405.774 270.141 405.774 268.46 405.905 266.471C406.844 251.584 412.622 237.412 422.361 226.112L422.369 226.098Z" fill="#0EBDFF"/>
<path d="M408.388 185.897C407.382 183.686 406.862 181.286 406.864 178.857C406.864 178.286 406.927 174.006 409.338 170.109C412.568 164.881 418.183 163.26 422.463 162.022C425.166 161.243 441.673 156.803 452.804 166.685C453.998 167.753 455.083 168.939 456.042 170.223C463.481 180.053 462.32 192.194 461.464 197.501L408.388 185.897Z" fill="black"/>
<path d="M418.811 230.595L420.563 215.963C419.427 215.838 418.309 215.579 417.233 215.192C415.821 214.677 414.495 213.949 413.301 213.035C411.124 211.278 410.143 208.872 409.432 206.584C407.318 199.761 405.945 188.507 408.482 178.161C409.207 175.202 410.305 172.103 413.079 170.009C413.735 169.514 414.449 169.1 415.205 168.776L445.259 169.538C450.544 176.089 455.828 182.642 461.11 189.195C461.31 190.839 461.966 197.784 457.307 204.412C452.399 211.395 445.137 212.99 443.61 213.289L443.493 226.986L437.955 231.266C436.266 231.46 434.471 231.6 432.576 231.654C427.963 231.798 423.348 231.443 418.811 230.595Z" fill="#F16D55"/>
<path d="M402.838 287.352C403.02 282.868 403.723 278.42 404.932 274.098C408.613 260.972 416.061 252.592 423.32 244.614C429.985 237.293 437.524 230.819 445.767 225.336" stroke="black" stroke-width="1.4267" stroke-linecap="round" stroke-linejoin="round"/>
<path d="M460.967 224.968L462.899 213.943L467.487 224.152L467.559 224.309C468.597 223.901 469.556 223.484 470.412 223.085C472.071 213.688 471.619 204.041 469.091 194.84C466.563 185.639 462.021 177.116 455.794 169.886C442.529 164.613 427.822 164.219 414.294 168.776C416.656 174.325 420.602 179.053 425.638 182.369C430.675 185.685 436.578 187.441 442.609 187.417C442.928 186.755 444.977 182.669 449.012 181.902C454.113 180.932 459.441 185.822 460.14 191.224C460.711 195.641 457.991 199.867 454.433 201.97C449.745 204.743 444.868 203.08 444.161 202.826C443.196 210.868 440.948 218.704 437.504 226.035C438.522 226.321 439.638 226.58 440.848 226.792C442.639 227.105 444.452 227.276 446.269 227.302L449.325 218.254L450.752 227.648C452.675 227.615 454.594 227.467 456.499 227.205C457.974 227 459.378 226.737 460.705 226.432L460.967 224.968Z" fill="black"/>
<path d="M452.636 189.326L446.892 192.933L453.146 195.518" stroke="black" stroke-width="1.4267" stroke-linecap="round" stroke-linejoin="round"/>
<path d="M409.623 185.2C411.303 184.321 413.206 183.96 415.091 184.164C416.976 184.367 418.758 185.125 420.212 186.342C420.468 187.551 420.489 188.799 420.275 190.017C419.633 193.632 417.076 195.749 416.28 196.36C417.829 197.728 419.642 198.763 421.608 199.402" stroke="black" stroke-width="1.4267" stroke-linecap="round" stroke-linejoin="round"/>
<path d="M418.089 204.966C419.179 205.839 420.47 206.428 421.844 206.678C423.899 207.018 426.008 206.613 427.791 205.536" stroke="black" stroke-width="1.4267" stroke-linecap="round" stroke-linejoin="round"/>
<path d="M425.696 185.802C427.593 184.676 429.733 184.023 431.935 183.899C434.137 183.775 436.337 184.183 438.348 185.089" stroke="black" stroke-width="1.4267" stroke-linecap="round" stroke-linejoin="round"/>
<path d="M394.024 295.148L385.906 295.216C384.782 294.577 383.618 294.01 382.422 293.518C373.479 289.835 362.231 290.168 356.835 295.325C356.088 296.041 354.09 297.95 354.504 299.939C354.789 301.365 356.216 302.187 356.55 302.378C358.333 303.408 359.569 302.706 363.019 302.695C365.758 302.695 369.011 302.721 371.008 304.789C371.348 305.143 372.221 306.079 372.292 307.452C372.378 309.164 371.151 310.365 370.866 310.622C370.186 311.255 369.299 311.675 366.585 311.968C363.712 312.28 361.609 312.151 357.629 312.396C356.028 312.496 355.295 312.585 354.541 313.121C353.183 314.089 352.515 315.975 352.746 317.598C353.1 320.092 355.6 321.739 357.437 322.352C359.235 322.948 361.615 322.772 366.377 322.415C367.598 322.326 368.851 322.204 369.55 322.986C370.335 323.867 370.012 325.439 369.867 326.159C369.639 327.135 369.23 328.059 368.66 328.883C367.19 330.909 359.663 332.918 349.322 333.512" stroke="black" stroke-width="1.4267" stroke-linecap="round" stroke-linejoin="round"/>
<path d="M298.846 288.516C297.81 288.391 291.358 287.503 287.244 281.645C282.453 274.82 285.018 267.221 285.278 266.488C286.168 266.551 293.09 267.147 297.325 273.274C302.138 280.239 299.071 287.977 298.846 288.516Z" fill="#099672"/>
<path d="M297.059 294.232C297.577 291.875 298.342 289.579 299.342 287.384C301.327 283.063 304.175 279.194 307.711 276.016L310.185 279.063C305.055 283.139 301.127 288.53 298.82 294.663L297.059 294.232Z" stroke="black" stroke-width="1.4267" stroke-linecap="round" stroke-linejoin="round"/>
<path d="M322.118 310.49C322.209 309.135 322.86 296.395 313.843 292.135C306.766 288.79 299.176 293.244 298.34 293.75C297.33 293.127 290.548 289.076 284.099 291.809C274.817 295.741 275.647 309.734 275.704 310.49C276.449 320.663 284.861 333.697 298.911 333.697C312.896 333.697 321.439 320.783 322.118 310.49Z" fill="#DD3354"/>
<path d="M285.817 307.006C288.25 307.006 290.223 305.034 290.223 302.601C290.223 300.168 288.25 298.195 285.817 298.195C283.384 298.195 281.411 300.168 281.411 302.601C281.411 305.034 283.384 307.006 285.817 307.006Z" fill="white"/>
<path d="M188.598 457.321C188.882 470.496 189.167 483.668 189.454 496.838C189.472 497.81 189.871 498.736 190.565 499.417C191.259 500.097 192.192 500.479 193.164 500.479H275.913C276.548 500.482 277.173 500.321 277.729 500.013C278.284 499.705 278.752 499.26 279.086 498.719C279.42 498.179 279.609 497.562 279.636 496.927C279.663 496.292 279.527 495.661 279.24 495.094C278.923 494.455 278.572 493.796 278.175 493.123C271.789 482.231 261.34 479.164 251.165 473.214C245.244 469.748 237.326 464.084 229.194 454.51C228.841 454.094 228.4 453.759 227.904 453.532C227.407 453.304 226.867 453.188 226.32 453.192L192.279 453.52C191.787 453.524 191.3 453.626 190.847 453.819C190.394 454.013 189.985 454.295 189.642 454.649C189.299 455.003 189.031 455.421 188.852 455.88C188.672 456.339 188.586 456.829 188.598 457.321Z" fill="black"/>
<path d="M108.817 457.321L109.451 496.838C109.482 498.861 110.709 500.479 112.207 500.479H173.555C175.607 500.479 176.934 497.571 176.023 495.094C175.701 494.221 175.487 493.494 175.233 493.123C172.462 489.085 160.806 481.315 155.676 475.623C147.883 466.977 150.825 458.357 142.359 454.507C141.574 454.151 139.979 453.831 136.792 453.192C124.808 450.792 118.091 453.435 111.554 453.52C110.013 453.54 108.783 455.249 108.817 457.321Z" fill="black"/>
<path d="M56.0864 337.138C54.6312 340.403 44.4131 364.374 56.9424 388.785C65.6424 405.731 80.2804 413.105 85.1911 415.322V458.979C116.293 467.13 149.086 466.139 179.639 456.125C188.621 457.073 198.351 457.709 208.744 457.837C224.008 458.025 239.267 457.103 254.398 455.078C255.234 447.882 255.489 440.63 255.16 433.392C254.495 418.903 252.806 381.991 225.864 357.968C220.157 352.892 208.898 344.42 190.482 339.992L56.0864 337.138Z" fill="#F16D55"/>
<path d="M118.893 464.218C133.982 464.821 149.089 463.556 163.868 460.451C169.706 459.221 175.17 457.766 180.249 456.188C181.411 440.876 181.398 425.496 180.21 410.186C179.396 399.913 178.301 393.154 174.788 385.646C170.488 376.45 164.482 370.238 160.236 366.529" stroke="black" stroke-width="1.4267" stroke-linecap="round" stroke-linejoin="round"/>
<path d="M273.039 342.072H264.479V500.479H273.039V342.072Z" fill="#275F7C"/>
<path d="M461.746 342.072H453.186V500.479H461.746V342.072Z" fill="#275F7C"/>
<path d="M528.022 332.276H256.886C255.879 332.276 255.063 333.093 255.063 334.1V343.293C255.063 344.3 255.879 345.117 256.886 345.117H528.022C529.029 345.117 529.846 344.3 529.846 343.293V334.1C529.846 333.093 529.029 332.276 528.022 332.276Z" fill="#0EBDFF"/>
<path d="M528.025 332.276H436.305C435.298 332.276 434.482 333.093 434.482 334.1V343.293C434.482 344.3 435.298 345.117 436.305 345.117H528.025C529.032 345.117 529.849 344.3 529.849 343.293V334.1C529.849 333.093 529.032 332.276 528.025 332.276Z" fill="#275F7C"/>
<path d="M214.259 245.247C189.757 226.54 162.504 224.928 149.013 224.132C132.332 223.148 110.521 221.761 88.7093 234.975C86.4266 236.365 49.2325 259.737 48.0027 301.745C47.8857 305.683 47.3007 344.917 74.4423 360.146C82.6658 364.757 90.8751 365.732 96.3194 365.852H145.78V343.784H221.299C244.645 343.784 248.668 336.26 250.783 333.512C265.101 314.908 245.318 268.959 214.259 245.247Z" fill="#F4E12C"/>
<path d="M145.795 332.102C153.034 331.441 160.333 332.277 167.235 334.559C175.076 337.157 182.17 341.618 187.908 347.559C195.972 355.982 197.61 363.724 197.481 367.279C197.444 368.206 197.356 370.452 195.898 371.336C194.38 372.255 192.168 371.228 191.583 370.957C191.15 370.754 190.385 370.343 188.604 368.546C187.422 367.352 186.32 366.081 185.306 364.742C186.096 365.884 189.015 370.301 187.811 374.221C187.403 375.559 186.761 376.042 186.575 376.17C184.886 377.343 182.258 376.13 181.011 375.554C180.227 375.189 178.8 374.438 174.925 370.703C173.57 369.396 172.497 368.286 171.786 367.541C173.142 369.229 173.996 371.264 174.252 373.414C174.38 374.606 174.68 377.44 173.065 378.644C172.112 379.352 170.91 379.198 170.297 379.121C168.317 378.875 167.064 377.694 163.934 374.698C161.879 372.723 160.301 371.188 159.511 370.418C156.015 369.944 152.747 368.417 150.14 366.041C148.202 364.244 146.708 362.022 145.775 359.549C145.782 350.405 145.789 341.256 145.795 332.102Z" fill="#FF9E9F"/>
<path d="M174.18 376.812C174.406 374.632 174.16 372.429 173.458 370.352C172.052 366.237 169.152 363.789 167.181 362.143C165.842 361.016 164.393 360.028 162.855 359.192" stroke="black" stroke-width="1.4267" stroke-linecap="round" stroke-linejoin="round"/>
<path d="M188.079 372.729C188.038 371.281 187.782 369.847 187.317 368.474C186.787 366.964 186.025 365.544 185.06 364.266C182.307 360.428 178.623 357.132 176.88 355.643" stroke="black" stroke-width="1.4267" stroke-linecap="round" stroke-linejoin="round"/>
<path d="M122.126 186.404C120.607 181.801 120.078 176.928 120.573 172.106C120.802 169.963 121.144 166.747 122.642 163.66C127.73 153.194 142.65 151.436 144.827 151.179C149.612 150.608 160.903 149.287 169.175 157.488C177.236 165.477 176.44 176.589 176.283 178.369L135.194 196.294L122.126 186.404Z" fill="black"/>
<path d="M132.78 203.142C131.934 212.022 131.088 220.9 130.244 229.776C135.105 232.6 140.551 234.263 146.16 234.637C151.769 235.01 157.389 234.084 162.581 231.93C162.667 226.012 162.752 220.095 162.835 214.177C165.084 213.44 169.732 211.549 172.728 206.949C174.44 204.312 174.979 201.764 175.39 198.705C176.84 187.908 178.814 173.102 170.129 166.379C168.776 165.332 167.64 164.85 166.134 164.211C156.683 160.216 143.475 161.674 138.487 169.156C137.431 170.736 137.06 172.28 136.33 175.37C134.945 181.225 134.602 187.279 135.317 193.253L132.369 193.35C132.738 189.01 130.96 185.049 127.77 183.297C127.165 182.963 124.665 181.699 121.838 182.578C118.142 183.719 116.818 187.628 116.547 188.433C114.915 193.238 116.81 199.867 122 202.763C126.882 205.488 132.047 203.448 132.78 203.142Z" fill="#FF9E9F"/>
<path d="M171.05 175.125C169.214 174.447 167.19 174.481 165.378 175.222C164.046 175.799 162.907 176.745 162.093 177.947C162.882 181.921 164.397 185.715 166.565 189.138L162.441 192.374" stroke="black" stroke-width="1.4267" stroke-linecap="round" stroke-linejoin="round"/>
<path d="M154.654 178.478C152.719 177.427 150.483 177.068 148.316 177.46C146.148 177.852 144.18 178.972 142.736 180.635" stroke="black" stroke-width="1.4267" stroke-linecap="round" stroke-linejoin="round"/>
<path d="M154.244 201.225C155.345 200.135 158.238 197.576 162.539 197.136C164.195 196.97 165.869 197.131 167.463 197.61" stroke="black" stroke-width="1.4267" stroke-linecap="round" stroke-linejoin="round"/>
<path d="M119.948 189.42L128.54 192.63L124.959 199.681" stroke="black" stroke-width="1.4267" stroke-linecap="round" stroke-linejoin="round"/>
<path d="M214.579 252.481C213.167 247.99 211.174 243.704 208.649 239.732C203.829 232.227 197.272 225.995 189.531 221.564C188.718 220.637 173.045 202.84 168.51 202.637C166.453 202.543 165.372 203.493 165.372 203.493C164.302 204.429 164.17 205.865 164.136 206.25C163.868 209.163 166.467 211.591 169.175 214.43C172.031 217.428 174.73 220.571 177.262 223.847C176.914 223.707 173.17 222.257 170.317 224.323C168.145 225.895 167.791 228.561 167.56 230.315C167.341 232.003 167.47 233.718 167.94 235.355C166.782 237.02 166.063 238.95 165.848 240.967C165.306 246.469 168.904 252.127 174.882 255.614C177.031 256.789 179.396 256.835 180.931 255.659C181.491 255.223 181.93 254.652 182.207 253.999C183.295 256.264 184.889 258.248 186.866 259.8C191.614 263.509 196.947 263.315 198.463 263.224L214.579 252.481Z" fill="#FF9E9F"/>
<path d="M168.77 202.666C168.485 202.617 166.719 202.329 165.372 203.493C164.025 204.658 163.62 206.946 164.653 208.892L177.262 223.847C176.443 223.519 173.755 222.566 171.27 223.77C167.957 225.376 166.176 230.278 167.934 235.355" stroke="black" stroke-width="1.4267" stroke-linecap="round" stroke-linejoin="round"/>
<path d="M183.063 227.556C181.353 226 179.392 224.746 177.262 223.847" stroke="black" stroke-width="1.4267" stroke-linecap="round" stroke-linejoin="round"/>
<path d="M177.165 235.038C176.88 234.841 173.493 232.47 170.128 233.897C167.255 235.109 166.419 238.228 166.148 239.275C164.205 246.586 171.698 253.257 172.756 254.21C173.733 255.119 174.904 255.793 176.181 256.182C177.215 256.462 178.295 256.531 179.356 256.384" stroke="black" stroke-width="1.4267" stroke-linecap="round" stroke-linejoin="round"/>
<path d="M173.487 243.598C175.866 247.09 178.727 250.228 181.984 252.92C182.752 255.117 184.008 257.111 185.657 258.752C190.579 263.603 197.196 263.295 198.463 263.212" stroke="black" stroke-width="1.4267" stroke-linecap="round" stroke-linejoin="round"/>
<path d="M91.3745 268.266C94.4714 272.171 97.269 276.304 99.7435 280.63C105.555 290.831 109.545 301.967 111.537 313.538H145.778V365.852" stroke="black" stroke-width="1.4267" stroke-linecap="round" stroke-linejoin="round"/>
<path d="M219.273 249.353L180.018 275.493C183.802 282.473 188.265 289.963 193.526 297.75C198.662 305.337 203.799 312.111 208.744 318.103" stroke="black" stroke-width="1.4267" stroke-linecap="round" stroke-linejoin="round"/>
<path d="M473.254 99.153H345.992V111.708H473.254V99.153Z" stroke="black" stroke-width="1.4267" stroke-linecap="round" stroke-linejoin="round"/>
<path d="M377.254 69.0981H354.807L363.238 99.153" stroke="black" stroke-width="1.4267" stroke-linecap="round" stroke-linejoin="round"/>
<path d="M377.254 69.0981H399.699L391.267 99.153" stroke="black" stroke-width="1.4267" stroke-linecap="round" stroke-linejoin="round"/>
<path d="M363.812 68.9526C360.884 65.8566 354.775 58.6461 353.411 47.7917C353.229 46.3308 351.166 28.5113 359.498 24.9645C365.995 22.1995 375.89 29.3473 379.854 37.5195C382.605 43.1949 382.171 48.6991 381.754 51.407C382.998 50.1229 385.683 47.7261 389.744 46.8415C394.024 45.9056 400.963 46.4021 403.252 50.8363C405.138 54.4944 402.864 58.8972 401.982 60.6006C399.006 66.3617 393.51 68.379 391.827 68.9611" stroke="black" stroke-width="1.4267" stroke-linecap="round" stroke-linejoin="round"/>
</svg>
