<svg xmlns="http://www.w3.org/2000/svg" xmlns:xlink="http://www.w3.org/1999/xlink" viewBox="0 0 2000 2000"><defs><style>.cls-1{fill:#fff;}.cls-2,.cls-9{fill:transparent;}.cls-3{fill:#163342;}.cls-4{fill:#ff9e9f;}.cls-5{fill:#f06d57;}.cls-6{fill:none;}.cls-6,.cls-9{stroke:#000;stroke-linecap:round;stroke-linejoin:round;stroke-width:5px;}.cls-7{fill:#f4e12c;}.cls-8{fill:#0ebdff;}.cls-10{fill:#292929;}.cls-11{fill:#dd3354;}.cls-12{mask:url(#mask);}</style><mask id="mask" x="940.22" y="372.33" width="118.19" height="165" maskUnits="userSpaceOnUse"><rect class="cls-1" x="943.08" y="372.33" width="115.33" height="165" rx="27.17"/></mask></defs><g id="_05" data-name="05"><rect class="cls-2" width="2000" height="2000"/><rect class="cls-3" x="680" y="1417.87" width="426.67" height="336.2"/><rect class="cls-3" x="130.67" y="966.67" width="508" height="758.67" rx="60"/><path class="cls-4" d="M741.67,969a530.6,530.6,0,0,1,92.66,225.67l-156-14.34Z"/><path class="cls-4" d="M1206,1422.67a1009.61,1009.61,0,0,1,189.33,270.66l-100.66,1.34L1118,1504Z"/><path class="cls-5" d="M698.67,1157.33A764.36,764.36,0,0,1,890,1194.67c172.53,57.42,283.88,163.68,340,226.66l-90.67,95.34L655.33,1210Z"/><path class="cls-4" d="M1080.67,1448.67a719.33,719.33,0,0,1,232.66,238l-209.33-2c-8.64-10.87-18.37-22.07-29.33-33.34a450,450,0,0,0-90-71.33Z"/><path class="cls-6" d="M1080.67,1448.67a719.33,719.33,0,0,1,232.66,238"/><path class="cls-5" d="M623,1202a746.84,746.84,0,0,1,201,30c152.48,44.72,255.94,128.48,311,181L987,1620a717.82,717.82,0,0,0-198-120c-124.14-49.91-234.9-53.8-300-51l-53-149Z"/><path class="cls-6" d="M623,1202a746.84,746.84,0,0,1,201,30c152.48,44.72,255.94,128.48,311,181L987,1620"/><path d="M310,900.67a37.22,37.22,0,0,1-26-66c-4.3-3.33-35.23-28.15-36.67-71.34-1.33-40.1,23.77-65.81,28-70A91.6,91.6,0,0,1,380,569.33c1.39-3.84,18-47.52,65.33-60,49.16-12.95,86.14,19.69,88.67,22,26.61-17.29,60.53-18.35,87.33-2.66,29.55,17.29,45.4,52,39.34,86.66,2,.59,43.21,13.26,54,54.67,9.26,35.56-11.44,63.35-14,66.67,3.79,3.33,35.49,32.11,32,74.66-3.17,38.53-33.84,72.18-76,81.34Z"/><path class="cls-7" d="M207.11,1195.56l26.67-8.89,32.44,55.11c58.95,6.2,158.15,8.73,271.78-28.45a650.25,650.25,0,0,0,178-90.66q2.34-74,4.67-148l28-19.34A221.36,221.36,0,0,0,716,914.67C616.41,817.2,454.51,848.29,430,853c-58.88,11.31-141.31,27.14-195.33,102.33C161.83,1056.71,202,1180.57,207.11,1195.56Z"/><path class="cls-8" d="M638.77,923.6q-27.16,48.74-54.35,97.47a10.24,10.24,0,0,0-1.14,6.71q5.91,34.14,11.81,68.29a10.19,10.19,0,0,0,13.28,7.94l92.29-30.89a10.24,10.24,0,0,0,5.89-5.13L757,966.5a10.2,10.2,0,0,0-5.91-14.21l-100.18-33.4A10.21,10.21,0,0,0,638.77,923.6Z"/><path class="cls-3" d="M646.33,926.27,592,1023.74a10.15,10.15,0,0,0-1.14,6.7q5.89,34.15,11.8,68.3a10.2,10.2,0,0,0,13.29,7.93l92.28-30.88a10.23,10.23,0,0,0,5.9-5.13l50.45-101.49A10.2,10.2,0,0,0,758.65,955l-100.19-33.4A10.2,10.2,0,0,0,646.33,926.27Z"/><path class="cls-8" d="M656.38,985.53l-17-5.54a3.6,3.6,0,0,1-2-5.23l17.82-30.86a3.59,3.59,0,0,1,4.23-1.62l17,5.54a3.6,3.6,0,0,1,2,5.23l-17.81,30.86A3.61,3.61,0,0,1,656.38,985.53Z"/><path class="cls-3" d="M657.64,977.93l-11.94-3.71a2.57,2.57,0,0,1-1.32-3.79l13.25-22.94a2.65,2.65,0,0,1,3-1.28l11.94,3.72a2.56,2.56,0,0,1,1.31,3.78l-13.25,22.95A2.65,2.65,0,0,1,657.64,977.93Z"/><path class="cls-4" d="M610.67,1065c-4.07-1.19-6.8-4.62-10.67-13-8.16-17.67-6-24-12.33-35.67-1.83-3.35-9.89-18.19-18-17.33-11,1.16-15.6,30.34-16,33-1.77,11.7-3,36.07,14.33,67.33A161,161,0,0,1,527.33,1146c-16.16,12.5-45.47,35.17-84,30.67-30.28-3.54-50.81-22.07-59.52-31.13l-164.29,46.11c5.68,21.88,18.46,57.8,49.15,89.68,66.94,69.56,163.67,62.4,186,60.67,147.63-11.42,227.2-152.89,234.66-166.67a140.14,140.14,0,0,0,34.34-20.66c8.88-7.28,32.72-27.32,41.33-60.34,3.44-13.2,7.39-39.75-3.22-45.44-4.13-2.21-9.48-.75-14.11,1.44.76-2.27,9.93-30.63-4.56-45-1.57-1.55-5.55-5.39-11.44-6-9-.92-18.57,6-24.34,17.67-.63-16.42-7.84-28.76-17-30.67a14.76,14.76,0,0,0-8.66,1c-9.9,4.62-11,20.09-12.67,27.67-2.7,12.4-12.37,29.11-44.33,46.33C622.47,1062.92,616.58,1066.74,610.67,1065Z"/><path class="cls-6" d="M695,985.83a43.75,43.75,0,0,1,10.33,15c8.79,21.48-3.64,42.48-5.5,45.5"/><path class="cls-6" d="M745.37,1005.76a55,55,0,0,1,7.14,25.71c.58,32.2-29.45,52-32.1,53.7"/><path class="cls-6" d="M750.32,1049.2c3.75-1.76,8.37-3.1,12-1.2,10.38,5.42,7.08,34.08.62,53.15-10.08,29.77-31.67,47.45-41.37,55.19A146,146,0,0,1,689,1176"/><path class="cls-6" d="M201.67,1196.67l190-53.34a901.58,901.58,0,0,0-16.11-118.89c-4.39-21.45-9.35-41.77-14.67-60.88"/><path class="cls-8" d="M130.67,1326H697.78a38.89,38.89,0,0,1,38.89,38.89v364.33A38.78,38.78,0,0,1,697.89,1768H130.67a0,0,0,0,1,0,0V1326A0,0,0,0,1,130.67,1326Z"/><path class="cls-3" d="M610.56,1326H698a38.67,38.67,0,0,1,38.67,38.67v364.67A38.67,38.67,0,0,1,698,1768H606.44a39.78,39.78,0,0,1-39.78-39.78V1369.89A43.89,43.89,0,0,1,610.56,1326Z"/><path class="cls-6" d="M568.33,1326H698a38.68,38.68,0,0,1,38.67,38.67v364.66c0,21.3-12.88,35.67-38.67,35.67"/><path class="cls-4" d="M439.31,783.87,386,871.33A126.15,126.15,0,0,0,501.9,917.9L540,845.33A128,128,0,0,0,576,826c42.65-32.77,67.71-96.1,48.33-142.67a83.05,83.05,0,0,0-10.33-18,141.25,141.25,0,0,1-139.23,24.79c-3.81-5.7-10.62-13.74-20.86-16.2C431.26,668.47,404.18,693.25,398,720c-3.87,16.76-1.12,41.12,16.44,54.67A46.93,46.93,0,0,0,439.31,783.87Z"/><path class="cls-6" d="M545.13,781l30.61.75a77.56,77.56,0,0,1,4.48-45.16c.65-1.47,4.21-9,12.31-11.58,8.75-2.73,19.21,1.52,25,10.83"/><path class="cls-6" d="M560.06,720.92c-2.38-4.47-7.42-12.65-16-18.29a34.11,34.11,0,0,0-28.4-4.48"/><path class="cls-6" d="M501.46,791.09a40,40,0,0,0,17.17,19c16.17,8.84,32.46,2.43,34.71,1.5"/><path class="cls-6" d="M472.67,820.22c5,6,15.88,17.13,33.33,22.22,20.36,5.95,37.46.06,46.67-3.11a94.22,94.22,0,0,0,34.44-21.11"/><path class="cls-6" d="M438.22,701.11q5.77,17.77,11.56,35.56l-31.56,5.55"/><path class="cls-2" d="M1836.71,1679.38a5.41,5.41,0,0,0-5.41-5.38H1006a5.4,5.4,0,0,0-5.4,5.38q-.06,9.58-.11,19.18a5.41,5.41,0,0,0,5.41,5.44h39.39a235.69,235.69,0,0,0,142,198H1650a235.65,235.65,0,0,0,142-198h39.39a5.41,5.41,0,0,0,5.41-5.44Q1836.77,1689,1836.71,1679.38Z"/><path class="cls-6" d="M1836.71,1679.38a5.41,5.41,0,0,0-5.41-5.38H1006a5.4,5.4,0,0,0-5.4,5.38q-.06,9.58-.11,19.18a5.41,5.41,0,0,0,5.41,5.44h39.39a235.69,235.69,0,0,0,142,198H1650a235.65,235.65,0,0,0,142-198h39.39a5.41,5.41,0,0,0,5.41-5.44Q1836.77,1689,1836.71,1679.38Z"/><path class="cls-9" d="M1462.72,1744.51a27.35,27.35,0,0,0-24.83,15.89,27.35,27.35,0,0,0-24.83-15.89c-15.11,0-35.8,15-12,51.92,16.28,25.24,33.23,35.68,38.27,40.57,6.9-7.46,16.63-16.87,32.24-38.67C1498.18,1761.17,1477.83,1744.51,1462.72,1744.51Z"/><rect class="cls-6" x="1100.13" y="117.33" width="744.81" height="998.67" rx="64.67"/><rect class="cls-6" x="1280.05" y="800.56" width="384.96" height="87.03" rx="25.5"/><rect class="cls-6" x="1280.05" y="914.23" width="217.83" height="87.03" rx="19.18"/><circle class="cls-6" cx="1472.54" cy="441.78" r="270.13"/><path class="cls-4" d="M982,528a87.77,87.77,0,0,0,27.33,23.67c26.54,14.61,52.79,10.66,61.34,9q11.32-48,22.66-96l-49.33-47Q1013,472.83,982,528Z"/><path class="cls-1" d="M1094.22,448.44l142.22,42.23A196.54,196.54,0,0,1,1277,445c117.31-96,309.17-16.91,330-8a126.75,126.75,0,0,1,43,30c3.31,3.56,14.25,15.72,25.78,41.67a253,253,0,0,1,20.78,84.1,299.68,299.68,0,0,1-27.89,33.45A290.13,290.13,0,0,1,1614,670.89a268.53,268.53,0,0,1-79.33,32.44c-84.5,19.68-153.52-7.77-170.67-15.11a273.72,273.72,0,0,1-63.19-37.9q-26-4-53.48-9.65a982.13,982.13,0,0,1-188.66-60Z"/><path class="cls-6" d="M1704.89,579.63a270.06,270.06,0,0,1-238.45,132.22c-87.55-2.05-147-46.4-165.63-61.53"/><path class="cls-6" d="M1604.67,514.22l-37.26,180.44"/><path class="cls-6" d="M1322.67,486.67q-10.93,81.82-21.86,163.65"/><path class="cls-10" d="M1483.67,219.5a201.3,201.3,0,0,0-41.17,50,36,36,0,0,1-3.83-20.83,34.68,34.68,0,0,1,4-12.34Z"/><path class="cls-8" d="M1445,539.67q-9.49-51.51-19-103l78.33,20Z"/><path class="cls-4" d="M1443,369.67q-8.51,33.49-17,67a148.33,148.33,0,0,0,77.45,21.23l21.88-34.9q3.51-28.67,7-57.33a45.51,45.51,0,0,0,21.34-1.67c1.65-.55,21.78-7.63,28.66-28.67,1.39-4.25,7.34-22.43-4.33-36.66-10.77-13.14-28-12.45-30-12.34L1478,221a107.49,107.49,0,0,0-31,33.67c-8.51,14.7-10.57,31.35-14.67,64.66-1.95,15.9-2.58,29.16,4.67,42A47.5,47.5,0,0,0,1443,369.67Z"/><path class="cls-6" d="M1445.33,281a30.11,30.11,0,0,1,36.17,14.33,99.12,99.12,0,0,1-23.5,26.5l10.5,10.67"/><path class="cls-6" d="M1497.78,296.89c1.33-.48,11-3.83,20.44,1.78A24.15,24.15,0,0,1,1528.67,312"/><path class="cls-6" d="M1452.67,345.11a26.47,26.47,0,0,0,7.77,8.89c9.44,6.76,20.27,4.69,22.45,4.22"/><path class="cls-6" d="M1563.56,318.22l-17.34,8.89L1560,340"/><path class="cls-10" d="M1474.08,223.92c3.7,10.92,13.74,35.44,38.59,54.75a114.41,114.41,0,0,0,39,19.66,44.33,44.33,0,0,1,27.31,1.6,58.35,58.35,0,0,0,6.35-25.26c.46-32.69-28.77-53.57-34.33-57.34-2.93-2-36.76-24.12-74-9-19,7.7-29.78,21.39-34.33,28l24.66-10Z"/><path class="cls-6" d="M1528.44,418q-19.92,31.28-41.68,63.24c-32.44,47.61-65.17,92-97.65,133.43L1364.41,689"/><path class="cls-6" d="M1389.11,614.67l134.56-90.34-8.34-45.66L1547.67,497l4.56-79.33"/><path class="cls-6" d="M1406.36,398.47,1380,472.33l38.33-2L1384,498.67l38.55,72.41"/><rect class="cls-7" x="943.08" y="372.33" width="115.33" height="165" rx="27.17"/><rect class="cls-11" x="961.5" y="347.7" width="78.5" height="25.63" rx="6.68"/><g class="cls-12"><path class="cls-11" d="M941,414.45l75.68-.23.44,88.22-76.89.45Q940.61,458.67,941,414.45Z"/></g><path class="cls-4" d="M1034.22,386.44c-5.24,0-9.78,9.39-11.33,15.56-6,23.8,20.28,48.1,25.11,52.44a64.32,64.32,0,0,0-5.56,24.23c-.61,21.84,10.41,37.51,14.45,42.72l30.89-61.17a77.29,77.29,0,0,0-11.56-25.55c-9.87-14-17-13.51-27.78-28.89C1040.37,394.28,1039,386.42,1034.22,386.44Z"/><ellipse class="cls-4" cx="936.67" cy="418.83" rx="15.83" ry="20.83" transform="translate(326.99 1244.1) rotate(-77.64)"/><ellipse class="cls-4" cx="934.67" cy="455.33" rx="20.83" ry="15.83"/><ellipse class="cls-4" cx="938" cy="495" rx="20.83" ry="15.83" transform="matrix(0.96, -0.29, 0.29, 0.96, -102.9, 291.55)"/></g></svg>