<svg xmlns="http://www.w3.org/2000/svg" xmlns:xlink="http://www.w3.org/1999/xlink" viewBox="0 0 2000 2000"><defs><style>.cls-1{fill:#fff;}.cls-12,.cls-2{fill:transparent;}.cls-13,.cls-3{fill:none;}.cls-12,.cls-13,.cls-3{stroke:#000;stroke-linecap:round;stroke-linejoin:round;}.cls-12,.cls-3{stroke-width:5px;}.cls-4{fill:#dd3354;}.cls-5{mask:url(#mask);}.cls-6{fill:#163342;}.cls-7{fill:#010101;}.cls-8{fill:#ff9e9f;}.cls-9{mask:url(#mask-2);}.cls-10{fill:#ea86a1;}.cls-11{fill:#f06d57;}.cls-13{stroke-width:4px;}</style><mask id="mask" x="896" y="1017.33" width="767.33" height="707.33" maskUnits="userSpaceOnUse"><path class="cls-1" d="M1022.3,1021.8a365.28,365.28,0,0,0,18.14,174.2A814.9,814.9,0,0,0,1178,1364c36.21,33.77,81.5,76.87,143,105,134.22,61.39,269.28,28.09,324,11q-33.49-102-67-204c-25.57,5.6-77.38,12.9-134-9-120.32-46.53-148.85-181-151-192Z"/><path class="cls-1" d="M1337.67,1017.33a241.17,241.17,0,0,1,5,46.67c1.22,147.07-137.11,209.43-169.34,342.67-10.67,44.13-14.28,114.92,36,216l-242.66,86.66C944.72,1666,891,1545.64,912,1388c20-150.4,96.62-249.43,128.67-286.67q2-40.33,4-80.66Z"/></mask><mask id="mask-2" x="671.56" y="601.04" width="915.11" height="493.96" maskUnits="userSpaceOnUse"><path class="cls-1" d="M671.56,919.11q23.1,79.11,46.22,158.22c25.76,5.27,81.66,12.86,144-11.11,107.53-41.33,146.33-142.76,152.44-159.55q4.23,60.33,8.45,120.66c22.57,2.42,46,4.25,70.33,5.34a1150.36,1150.36,0,0,0,244.67-15.34Q1326.83,959.18,1316,901q22.47,21.9,45.33,47a1061.15,1061.15,0,0,1,102.23,132.44,344.33,344.33,0,0,0,123.11-92c-18.49-27.33-47.35-68.47-85.34-116.44-112.82-142.48-169.23-213.72-263.11-248.44-27.21-10.07-141.48-48.3-251.55,5.77-20.78,10.21-76,37.87-109.34,97.34-35.15,62.65-14,103.66-46.66,144.66C809.81,897.49,767.29,923.32,671.56,919.11Z"/></mask></defs><g id="_09" data-name="09"><rect class="cls-2" width="2000" height="2000"/><path class="cls-3" d="M207,997c6.47-68,27-163.33,100-220,99.33-77.15,200.59-8.68,294-85,100.29-81.94,48.15-215.74,146-283,63.29-43.5,148.29-31.18,212-13"/><path class="cls-3" d="M1128,406c12.19,5.82,83.89,38.63,167,7,85.88-32.69,117.21-108.79,122-121"/><path d="M1019.11,1680l12,67.11a350.43,350.43,0,0,1-85.33,51.56c-63.86,26.9-106.77,8.4-107.45,22.72-.21,4.46-8.7,30.13,15,38.61l311.31-6.44a26.24,26.24,0,0,0,25-32.11q-21.27-92.73-42.56-185.45Z"/><path d="M1602.34,1453.35l60.33-31.75a350.27,350.27,0,0,1,75,65.73c45,52.72,44.55,106.59,58.41,102.9,4.31-1.15,27.12-8.2,28-33.36l-100.37-294.75a26.24,26.24,0,0,0-38.18-14.14l-163.86,96.69Z"/><path class="cls-4" d="M1022.3,1021.8a365.28,365.28,0,0,0,18.14,174.2A814.9,814.9,0,0,0,1178,1364c36.21,33.77,81.5,76.87,143,105,134.22,61.39,269.28,28.09,324,11q-33.49-102-67-204c-25.57,5.6-77.38,12.9-134-9-120.32-46.53-148.85-181-151-192Z"/><path class="cls-4" d="M1337.67,1017.33a241.17,241.17,0,0,1,5,46.67c1.22,147.07-137.11,209.43-169.34,342.67-10.67,44.13-14.28,114.92,36,216l-242.66,86.66C944.72,1666,891,1545.64,912,1388c20-150.4,96.62-249.43,128.67-286.67q2-40.33,4-80.66Z"/><g class="cls-5"><path class="cls-6" d="M1440,1250.67a413.17,413.17,0,0,1-16.67,270l240-16-69.33-240Z"/><path class="cls-6" d="M896,1530.67A778.07,778.07,0,0,0,1179.33,1484L1230,1631.33l-274,93.34Z"/></g><path class="cls-3" d="M1061.56,1077.56c-11,11.67-22.1,24.51-33.2,38.6a596.19,596.19,0,0,0-61.5,95.61"/><path class="cls-3" d="M1173.33,1406.67a295.92,295.92,0,0,1,14.27-41.85c12.84-30.06,27.5-50.44,37.41-64,70.88-97.36,86.74-113.91,101-150.72a270,270,0,0,0,14.85-55.41"/><path class="cls-7" d="M958.67,374.67C942.41,393,942.11,416.85,942,426c-.92,73.75,80.86,117.21,85,119.33L1408,800l52-60-32.33-32a84.89,84.89,0,0,1,14.66,2.83,87.11,87.11,0,0,1,30,15.5L1502,687c-6.27-7.12-17.22-17.53-33.33-23-30.78-10.44-46.94,8.53-69.34-.67-28.88-11.85-16.88-49.49-49.33-71.33-28.44-19.14-49.26,2-74.89-17.33-27.71-20.86-11.51-51.63-40.5-77.12-24.56-21.59-44.43-6.75-69.94-28.22-27.3-23-14.31-48.14-36-76.66C1092.83,345.55,995.63,333.08,958.67,374.67Z"/><path class="cls-8" d="M713,1066.61l-28-128-45.49,7.64c0-1.37-1.33-27.65-19-36.9-18.12-9.48-48.8,1.38-62.1,31.79l-61.91,13.43a28,28,0,0,0,7.27,54.41c-11.12,3.28-18.37,13.6-17.66,24.18.82,12.28,12.19,22.53,25.83,21.83a26.59,26.59,0,0,0-11.51,31.14c4.32,12.41,17.85,19.88,31.24,16.75Z"/><path class="cls-3" d="M560.23,940.86l-9,55.75c1.69,10,9.84,17.45,19.2,18a21,21,0,0,0,19.21-10.83q6.54-23.32,13.06-46.65c-7.15,15.18-5.84,31.71,3.38,41.89a31.44,31.44,0,0,0,15.89,9.16"/><path class="cls-3" d="M505.64,1007.72l46-13.53"/><path class="cls-3" d="M513.63,1058.7l54.74-17.89c1.21-.35,18.28-5.66,22.51-21.62a29.22,29.22,0,0,0-.78-16.94"/><path class="cls-3" d="M542.75,1092.6,582.31,1072c.33-.28,8.42-7.23,6.77-17-1.37-8.15-8.87-14.66-18.13-15.1"/><path class="cls-6" d="M1686.31,1080.57,1516,1205.1c-15.09,11-15.8,35.72-1.6,55.15l35,47.83,21.53-15.74-20.91-28.6c-14.2-19.42-15.63-42.54-3.2-51.64l140.45-102.69c12.44-9.09,34-.72,48.24,18.71l20.9,28.59,17.94-13.11-35-47.83C1725.14,1076.34,1701.4,1069.54,1686.31,1080.57Z"/><path class="cls-8" d="M1572.6,978.49,1471,1061.14l27.31,37.17c-1.19.66-24.08,13.65-24.36,33.6-.3,20.45,23.21,42.94,56.36,41.11q19.93,24.62,39.88,49.21a28,28,0,0,0,45.3-31c7.94,8.44,20.41,10.27,29.54,4.87,10.6-6.27,14.62-21,7.85-32.89a26.59,26.59,0,0,0,33-3.77c9.13-9.44,9.7-24.88.87-35.43Q1629.66,1051.24,1572.6,978.49Z"/><path class="cls-4" d="M671.56,919.11q23.1,79.11,46.22,158.22c25.76,5.27,81.66,12.86,144-11.11,107.53-41.33,146.33-142.76,152.44-159.55q4.23,60.33,8.45,120.66c22.57,2.42,46,4.25,70.33,5.34a1150.36,1150.36,0,0,0,244.67-15.34Q1326.83,959.18,1316,901q22.47,21.9,45.33,47a1061.15,1061.15,0,0,1,102.23,132.44,344.33,344.33,0,0,0,123.11-92c-18.49-27.33-47.35-68.47-85.34-116.44-112.82-142.48-169.23-213.72-263.11-248.44-27.21-10.07-141.48-48.3-251.55,5.77-20.78,10.21-76,37.87-109.34,97.34-35.15,62.65-14,103.66-46.66,144.66C809.81,897.49,767.29,923.32,671.56,919.11Z"/><g class="cls-9"><path class="cls-1" d="M1012,981.78q41,.54,84-.45a2273.89,2273.89,0,0,0,234.67-17.77q6.21,27.77,12.44,55.55a1333.22,1333.22,0,0,1-238.67,19.11c-31.37-.32-61.48-1.74-90.22-4Z"/><path class="cls-1" d="M1373.78,976l19.55,23.11A276.4,276.4,0,0,0,1510.67,880l-17.78-22.67A350.87,350.87,0,0,1,1373.78,976Z"/><path class="cls-1" d="M1421.78,1034.67l19.55,23.11a276.54,276.54,0,0,0,117.34-119.11L1540.89,916a350.87,350.87,0,0,1-119.11,118.67Z"/><path class="cls-1" d="M807,889l-30,11a387.69,387.69,0,0,0,71.5,174.18l31.41-7.34A624.09,624.09,0,0,1,807,889Z"/><path class="cls-1" d="M733.48,910.8l-32.81,7A352,352,0,0,0,762,1095l35.66-7.16a392.88,392.88,0,0,1-64.18-177Z"/></g><path class="cls-8" d="M974.67,389.78c-8.14,10.62-31.35,43.86-28.23,88.89.9,12.91,4,58,38.23,78.44a70.64,70.64,0,0,0,32.44,9.56l1.56,84,32,50L1123.33,638q-19-62-38-124c3.74,0,20.41-.19,31-12.33,15-17.18,11.18-50.61-9-60.34-12.06-5.81-28.11-2.26-40.66,8a103.68,103.68,0,0,1-60-20A102.58,102.58,0,0,1,974.67,389.78Z"/><path class="cls-3" d="M957.5,462.83a33.79,33.79,0,0,1,12.5-4,35.62,35.62,0,0,1,23.17,5.84A68.09,68.09,0,0,1,991.5,479a69.07,69.07,0,0,1-9.33,22.17l13.33,6"/><path class="cls-3" d="M1015,465.84a36.41,36.41,0,0,1,16-6.67,37.58,37.58,0,0,1,24.83,5.16"/><path class="cls-3" d="M984.47,530.2a49.82,49.82,0,0,0,14.66,4.21,51.43,51.43,0,0,0,25.84-3.48"/><path class="cls-3" d="M1100.09,459.49l-20.31,19.74,22,11.28"/><path class="cls-3" d="M971.33,699.33A550.49,550.49,0,0,0,965,773c-.85,47.22,5.09,61.2,7.89,67,10.64,22,28.59,34.77,40,41.33l9.78,146"/><path class="cls-3" d="M1050.56,703c-3,7.56-39.7,104,7.44,152.33A76.55,76.55,0,0,0,1078,870c1.44,29.23,4.33,60.93,9.33,94.67,3.43,23.06,7.51,44.87,12,65.33"/><path class="cls-3" d="M1107,752a167,167,0,0,0,25,116l98-2-21-116Z"/><path class="cls-3" d="M1209,750l-46.33,59.67L1107,752"/><path class="cls-6" d="M1050.67,700.67l43.77,36.22a519.16,519.16,0,0,0,76.45-134.45l-62.8-14.19c-4.16,12-9.09,24.66-15,37.75A456.87,456.87,0,0,1,1050.67,700.67Z"/><path class="cls-6" d="M1017.33,591.78l-39.45,37.09a241.22,241.22,0,0,0,33.23,108.35l39.56-36.55a252.05,252.05,0,0,1-33.34-108.89Z"/><rect class="cls-10" x="1516.03" y="1200.96" width="347.34" height="234.23" rx="30.34" transform="translate(-453.01 1283.58) rotate(-37.03)"/><rect class="cls-4" x="1555.59" y="1171.11" width="347.34" height="234.23" rx="30.34" transform="translate(-427.05 1301.38) rotate(-37.03)"/><circle class="cls-1" cx="1729.26" cy="1288.22" r="78.11"/><rect class="cls-4" x="1706.44" y="1232.39" width="45.64" height="111.67" rx="11.28" transform="translate(-427.05 1301.38) rotate(-37.03)"/><rect class="cls-4" x="1706.44" y="1232.39" width="45.64" height="111.67" rx="11.28" transform="translate(1716.1 -868.09) rotate(52.97)"/><ellipse class="cls-1" cx="195.78" cy="1186" rx="90" ry="14"/><path class="cls-11" d="M265.17,1050.61h0a69.17,69.17,0,0,0-138.34.06c0,.87,0,1.91.08,3.06l.06,1.15c0,.53.08,1.08.13,1.65a68.61,68.61,0,0,0,9,28.63c.2.35.38.7.59,1a.86.86,0,0,1,.1.16l.43.69c.43.68.85,1.34,1.28,2l.44.65c.49.71,1,1.4,1.48,2.08l.3.41c1.3,1.72,2.62,3.31,3.94,4.77l.39.43c.69.75,1.37,1.47,2.05,2.16l0,0c.7.71,1.4,1.36,2.09,2l.56.51c.69.62,1.37,1.2,2,1.75l.57.47c.72.58,1.42,1.14,2.09,1.64l.47.35c.78.58,1.53,1.11,2.23,1.58l.39.27,1.46,1a194.71,194.71,0,0,1,11.84,19.39A197.89,197.89,0,0,1,190,1181.83h8.67v0H202a197.66,197.66,0,0,1,19.17-53.33,194.86,194.86,0,0,1,11.8-19.34,69.08,69.08,0,0,0,32.12-55.48c.05-1.1.07-2.08.08-2.92v-.1ZM196,1080.89a28.23,28.23,0,1,1,28.22-28.22A28.22,28.22,0,0,1,196,1080.89Z"/><ellipse class="cls-1" cx="1410" cy="285.24" rx="90" ry="14"/><path class="cls-11" d="M1479.16,147.74h0a69.17,69.17,0,0,0-138.33,0c0,.88,0,1.91.08,3.06L1341,152c0,.53.08,1.08.13,1.65a68.66,68.66,0,0,0,9,28.63c.2.35.38.7.59,1.05l.1.15c.14.24.29.46.43.7.42.68.85,1.34,1.28,2l.44.65c.49.71,1,1.4,1.48,2.07l.3.42c1.3,1.72,2.62,3.31,3.94,4.77l.39.43c.69.75,1.37,1.47,2,2.15l0,0c.7.7,1.4,1.36,2.09,2l.56.51c.69.62,1.37,1.2,2,1.75l.57.47c.71.58,1.41,1.13,2.09,1.64l.47.35c.78.58,1.53,1.11,2.22,1.58l.4.27,1.46,1a193.56,193.56,0,0,1,11.84,19.39A197.77,197.77,0,0,1,1404,279h8.67v0H1416a198.11,198.11,0,0,1,19.16-53.34A194.65,194.65,0,0,1,1447,206.24a69.1,69.1,0,0,0,32.12-55.49c.05-1.09.07-2.07.07-2.91v-.05h0ZM1410,178a28.23,28.23,0,1,1,28.22-28.23A28.22,28.22,0,0,1,1410,178Z"/><circle class="cls-12" cx="595.37" cy="671.56" r="75.56"/><path class="cls-3" d="M595.37,615.78v55.78L628,702.89"/><path class="cls-3" d="M776,272.06,670.85,345.32A10.81,10.81,0,0,0,666.93,358l12.65,33.08-26.86,18.7a10.8,10.8,0,0,0-3.93,12.68l7.64,20.23a10.79,10.79,0,0,0,16.27,5l7.36-5.13a20.35,20.35,0,1,1,33.4-23.26l15.69-10.93,39.76-27.69a20.35,20.35,0,0,1,33.41-23.26l9.43-6.57a10.79,10.79,0,0,0,3.91-12.72l-23.37-61.15A10.8,10.8,0,0,0,776,272.06Z"/><circle class="cls-3" cx="696.51" cy="431.2" r="17.77"/><circle class="cls-3" cx="785.61" cy="369.14" r="17.77"/><path class="cls-13" d="M741,333.09l-8.25,5.75a4,4,0,0,1-5.56-1l-5.75-8.26a4,4,0,0,0-5.56-1l-9.27,6.45a4,4,0,0,0-1,5.57l5.74,8.25a4,4,0,0,1-1,5.56l-8.25,5.75a4,4,0,0,0-1,5.56l6.46,9.27a4,4,0,0,0,5.56,1l8.25-5.74a4,4,0,0,1,5.56,1l5.75,8.25a4,4,0,0,0,5.56,1l9.27-6.46a4,4,0,0,0,1-5.56l-5.75-8.25a4,4,0,0,1,1-5.56l8.26-5.75a4,4,0,0,0,1-5.56l-6.46-9.27A4,4,0,0,0,741,333.09Z"/></g></svg>