<svg xmlns="http://www.w3.org/2000/svg" xmlns:xlink="http://www.w3.org/1999/xlink" viewBox="0 0 2000 2000"><defs><style>.cls-1{fill:#fff;}.cls-2,.cls-6{fill:transparent;}.cls-3{fill:#ff9e9f;}.cls-4{fill:#0ebdff;}.cls-5{fill:none;}.cls-5,.cls-6{stroke:#000;stroke-linecap:round;stroke-linejoin:round;stroke-width:5px;}.cls-7{mask:url(#mask);}.cls-8{fill:#292929;}</style><mask id="mask" x="811.98" y="1307.53" width="401.03" height="440.07" maskUnits="userSpaceOnUse"><path class="cls-1" d="M841,1365q27.5,149,55,298h288c3.51-2.76,28.4-23,29-57,.56-32.7-21.79-53.39-29-59.33-19.11-15.75-40.52-17.51-67-19.67a207.17,207.17,0,0,0-50,2q-17.51-84-35-168Z"/></mask></defs><g id="_08" data-name="08"><rect class="cls-2" width="2000" height="2000"/><path class="cls-3" d="M610.22,743.56l130.67-48,38.67,105.77L728,822.67Z"/><path d="M1361.33,1617.33,1510,1614c-3.38,16-5.27,38.51,6,58.67,9,16.11,20,19.26,29.33,34.66,7.39,12.22,13.81,32.32,6.67,66H1321.32a160.46,160.46,0,0,1,40-156Z"/><path class="cls-4" d="M1522.46,1626.48l-233.07.55-1.46-300.25q-28.7,151.83-57.4,303.66l-125.34,7.28-17.83-307.22,420.51-24.4Q1515.16,1466.29,1522.46,1626.48Z"/><path class="cls-1" d="M724.67,663.33Q757.33,754.67,790,846c54.76.87,101.63-1.55,138.67-4.67,49-4.12,79.45-9.35,106-32a120.48,120.48,0,0,0,24-28q-.84,277.84-1.67,555.67h528l-38-495c23.49-14,62.93-42,92-91,46.26-78,41.58-167.45,21-227-56.66-163.93-273.34-215.26-398-217-60.52-.84-157.56-2.2-241,68C907.29,470.66,911.08,621.6,912,644Z"/><path class="cls-4" d="M1196,326a923.93,923.93,0,0,0,70.67,216,592.84,592.84,0,0,0,34-222.67Z"/><path class="cls-3" d="M1417.42,798.89c-16.92,10.09-32.84,12.55-38.66,6.33-7.42-7.91,2.55-28.78,10.66-39,31.09-39.13,112.83-19.72,126.53-16.31l19.26,53.84q6.74,18.81,13.46,37.63a72,72,0,0,1-31.25,9.51,70.82,70.82,0,0,1-20.83-1.78c-20,20.48-41.09,27.08-47.83,21.11-6.4-5.66-2.78-25.2,10.66-45.33-22.61,20.87-45.87,25.88-53,18.67C1400,837,1404.3,817.84,1417.42,798.89Z"/><path class="cls-5" d="M1446.5,866.63a87.34,87.34,0,0,1,15.81-44.85,85.34,85.34,0,0,1,21.11-20.67"/><path class="cls-5" d="M1403.35,830.09a87.27,87.27,0,0,1,21.45-42.43,85.54,85.54,0,0,1,23.6-17.78"/><path class="cls-5" d="M1273.33,1336q-14.65-308-29.33-616"/><path class="cls-5" d="M1249.86,627.15,1140.22,495.29a22.28,22.28,0,0,1-1.86-25.91L1182,398.33l-64.14,24.19a6.35,6.35,0,0,1-7.67-9.23l58.14-96"/><path class="cls-5" d="M1548.67,842q-27.35-77-54.67-154l-3.33-156"/><path class="cls-5" d="M1013,579.67l51.33-13-9,617.33"/><circle class="cls-6" cx="1277.23" cy="1768.81" r="79.66"/><rect x="1183.56" y="1641.33" width="173.33" height="45.33"/><path class="cls-3" d="M1350.46,1645.93H1037.15q-7.35-66-14.69-132L1005,1328l130,17,19.46,166.93q14,24,28,48c19.62-.94,51.92.59,85,18a153.75,153.75,0,0,1,22.89,14.78c9.21-10.12,22.94-12.25,31.78-6.45,7.94,5.21,9.15,15,9.33,16.67,6.61-10.48,19-14.81,29-11,11.89,4.54,14.75,18.49,14,27C1373.37,1631.23,1363.86,1642,1350.46,1645.93Z"/><path class="cls-5" d="M1332.13,1598.26a40.46,40.46,0,0,1-1.11,12c-4.27,17.18-18.81,26.21-23.11,28.67"/><path class="cls-5" d="M1245.64,1584.12c.73-.5,13.72-9.23,28.22-2.89a28.22,28.22,0,0,1,4.45,49.56"/><path class="cls-1" d="M841,1365q27.5,149,55,298h288c3.51-2.76,28.4-23,29-57,.56-32.7-21.79-53.39-29-59.33-19.11-15.75-40.52-17.51-67-19.67a207.17,207.17,0,0,0-50,2q-17.51-84-35-168Z"/><g class="cls-7"><path class="cls-5" d="M888.67,1673.33a329.63,329.63,0,0,1,22.66-38.66c48.54-71.13,115.17-108.28,160-127.34"/><path class="cls-5" d="M947.43,1706.27A328.28,328.28,0,0,1,962,1663.88c33.46-79.35,91.4-129,131.56-156.55"/><path class="cls-5" d="M1001.17,1721.33a326.6,326.6,0,0,1,9.47-43.8c23.92-82.73,75.64-138.81,112.29-170.9"/><path class="cls-5" d="M1061.38,1729.7a328.63,328.63,0,0,1,6.59-44.33c18.45-84.11,66.38-143.46,100.85-177.88"/><path class="cls-5" d="M1129.15,1745.1a330.28,330.28,0,0,1,1.09-44.81c8-85.74,48.27-150.52,78.25-188.92"/><path class="cls-5" d="M879.38,1638.93a327.65,327.65,0,0,1,22.67-38.67c48.53-71.13,115.16-108.28,160-127.33"/><path class="cls-5" d="M871.56,1595a328.91,328.91,0,0,1,22.66-38.67c48.54-71.13,115.17-108.28,160-127.33"/><path class="cls-5" d="M863.11,1559a328.36,328.36,0,0,1,22.67-38.66c48.53-71.13,115.17-108.28,160-127.34"/><path class="cls-5" d="M854.17,1527a327.65,327.65,0,0,1,22.67-38.67c48.53-71.13,115.17-108.28,160-127.33"/><path class="cls-5" d="M837.82,1500.91a328,328,0,0,1,22.66-38.66c48.54-71.14,115.17-108.28,160-127.34"/><path class="cls-5" d="M814.48,1476a328.36,328.36,0,0,1,22.67-38.66c48.54-71.13,115.17-108.28,160-127.34"/></g><path class="cls-3" d="M801.67,1007.33l118.66,14a173.88,173.88,0,0,1,48-2.66c20.94,1.76,63.29,5.33,90,38,6.1,7.46,16.66,22.88,20.34,48l-337-4.67-17.84-87Z"/><path class="cls-5" d="M984.44,1047.11a76.71,76.71,0,0,1,23.12,10.67c23.52,16.13,30.81,40.92,32.88,49.33"/><rect x="726.33" y="1092" width="380.33" height="43.33" rx="14.33"/><path d="M300.79,829H175.55A26,26,0,0,0,150,859.17q37.65,228.58,75.32,457.18a26,26,0,0,0,26.67,21.71l141.62-5.81c15.54-.64,17.9-20.15,24.37-31.1,7.18-12.14,41.3-69.89,15.07-119.48-4.33-8.2-16.91-28.65-48-42.5,8.7-46.35,32.19-201-58.8-289.38A192.13,192.13,0,0,0,300.79,829Z"/><path class="cls-4" d="M1170.67,1380.44H739.56Q504.43,1218.23,269.33,1056L232,1064c-6.32-15.14-41.17-102.64,1.33-197.33C286.14,749,411,725.74,421.33,724c35.19-7.73,89.6-14.07,152,1.33C683.9,752.62,745.16,830,764.89,855.56c44,57.07,62.29,115.2,70.44,153.44l-111.78,6.38,27.34,72.18c23.47.26,58.39,1.2,100.67,4.44,84.89,6.5,127.34,9.75,166.23,27.08,18,8,79.52,36.48,120,106.25C1176.53,1292.15,1173,1357.11,1170.67,1380.44Z"/><path class="cls-5" d="M667.33,875.33q22.17,53.13,44,108.67,21.57,54.9,41.26,108.3"/><path class="cls-5" d="M1036.67,1380.44a239,239,0,0,0-5.34-82.44c-3.23-13.26-10.47-41.92-28.66-68-12.55-18-35.7-42.48-105.34-68.67-41.43-15.58-107.29-34.76-194-37.33"/><path class="cls-3" d="M249.63,1060.22l145.26-35.11,17.55,30L614,1054c29.06-4.46,74.21-6.77,118,12,17.38,7.45,26.48,14.77,32.44,20.67,24.58,24.29,28.19,56.4,28.89,69.33H306a171.08,171.08,0,0,1-56.37-95.78Z"/><path class="cls-5" d="M679.56,1091.11a82.05,82.05,0,0,1,61.72,66.68"/><path class="cls-5" d="M232,1064l177.78-42.67Q392,936,374.22,850.67"/><path class="cls-5" d="M692,1054.16c8.82.26,38.85,2.21,65.5,25.34a104.82,104.82,0,0,1,32.17,51.5"/><path d="M594.71,562.71a79.68,79.68,0,0,0,3.51-28c-1.53-27.52-17.25-46.14-23.11-52.45l-22.22,36.45Z"/><path class="cls-3" d="M540.18,753.39l-3.72-53.6A58.31,58.31,0,0,0,550,697.34a59.54,59.54,0,0,0,16.28-7.89c9.12-6.65,13.56-16.15,16.88-25.22,9.88-27.06,17.68-72.14,9.54-114.34-2.33-12.07-6.13-24.78-16.89-33.77a41.84,41.84,0,0,0-8.31-5.4l-121.26-3-67.82,76c-10.67,23.21-4.8,49.13,12.27,62.08s38.21,7.62,41.15,6.83q.24,45.16.46,90.31a123,123,0,0,0,107.85,10.39Z"/><path d="M575.11,482.22A186,186,0,0,0,537,468.67c-17.43-4.13-63.86-15.1-110,8.33-14.67,7.45-51.36,26.08-59,64.67-4.44,22.43,2.92,41.59,7.25,50.78A32.29,32.29,0,0,1,385,580.67c13.31-9.72,33.58-7.36,46.67,2.66,12.72,9.75,15.39,24.25,16,28.34q-.84-21.17-1.67-42.34a309.32,309.32,0,0,0,40-13.66,314.25,314.25,0,0,0,87.33-55.34Q574.23,491.29,575.11,482.22Z"/><path class="cls-5" d="M398,594.67l30,22-24.89,15.55"/><path class="cls-5" d="M580.23,580.75c-13.52-5.21-30.82-3.17-32.48,10.8-1,8.15,4.08,19,7.27,24.63a3.39,3.39,0,0,1-2.07,5c-4.85,1.32-11.21,2.47-15.56,4"/><path class="cls-5" d="M521.61,581.54c-5.36-1.6-9.82-3.28-19.31-3.12-10.71.17-16.59,2.61-22.17,4.67"/><path class="cls-5" d="M508.6,649.3c9.1,13.33,41,13.52,51.84-1.08"/><rect class="cls-8" x="264.11" y="1130.01" width="585.44" height="55.56" rx="14.17"/><path class="cls-8" d="M898.91,1663h458a0,0,0,0,1,0,0v33a10.25,10.25,0,0,1-10.25,10.25H898.91A10.25,10.25,0,0,1,888.67,1696v-22.78A10.25,10.25,0,0,1,898.91,1663Z"/><circle class="cls-6" cx="522.44" cy="1511.37" r="334.85"/><path class="cls-6" d="M528.07,1176.57q-2.82,334.83-5.63,669.66"/><path class="cls-6" d="M860.08,1514.21l-669.65-5.62"/><path class="cls-6" d="M760,1750.14,290.48,1272.65"/><path class="cls-6" d="M286.51,1746.17,764,1276.63"/><circle class="cls-6" cx="525.25" cy="1511.4" r="35.36"/><circle class="cls-6" cx="1128.84" cy="1768.81" r="79.66"/><path class="cls-3" d="M716.44,714.07a169.92,169.92,0,0,0-27,22.54,187.4,187.4,0,0,0-21.59,26.72c-56.77,26.16-68.77,39-67.6,45.87.71,4.22,6.47,6.43,10.44,8,13.16,5.05,24.05-1.28,40.55-5.89A141.74,141.74,0,0,1,685,806.15l57.23,2.47Z"/><path class="cls-5" d="M756.89,800.44a120.14,120.14,0,0,1-70.67,6.67"/><circle class="cls-8" cx="1351.8" cy="180.67" r="50.67"/><path d="M1324.84,139.23l12.51,1.12a69.64,69.64,0,0,1,2.09,31.28,70.52,70.52,0,0,1-17.76,36.19l-11.85-6.29Q1317.33,170.38,1324.84,139.23Z"/><path class="cls-3" d="M1198.22,336l-1.41-49.37a84,84,0,0,1-15.14-7.67c-50.67-32.54-45.31-108-44.47-119.8,1.36-19.16,8.53-27.6,11.33-30.51a34.52,34.52,0,0,1,6.51-5.31l101.27-12,63.09,60.46a50.61,50.61,0,0,1,6.46,29.84c-.47,4.63-2,15.88-11.58,24.8-10.62,9.86-23.68,9.8-26.62,9.72q6.57,42.89,13.12,85.79a163.23,163.23,0,0,1-102.56,14Z"/><path class="cls-8" d="M1273.83,172.33c1.18-1.43,9.15-10.84,22.33-10.87,15.92,0,24.77,13.64,25.34,14.55a85,85,0,0,0,3.33-41.61c-6.07-34.49-32.54-53.18-39.88-57.92-42.26-27.28-94.8-8.07-117.91,12a89.11,89.11,0,0,0-21.28,27.89,132,132,0,0,0-8.77,46c3-7.51,7.14-11,9.68-12.7s5.91-3.18,22.53-4.65c6.29-.56,11.53-.85,15.2-1,2.26,3.78,19.06,30.81,51.38,34.87A68.15,68.15,0,0,0,1273.83,172.33Z"/><path class="cls-5" d="M1306.44,178.44l-18.66,22.89,24,9.56"/><path class="cls-5" d="M1145.33,181a35.35,35.35,0,0,1,20.51-7.47c9.17-.29,12.78,9.75,13.71,17.56,1,8.13-2,18.64-4.87,24.49-1.33,2.73-.48,7.1,2.55,7.18,4.77.12,11.88-1.08,14.85-1.08"/><path class="cls-5" d="M1198.56,173.52a46.09,46.09,0,0,1,18-5,47,47,0,0,1,20.55,3.41"/><path class="cls-5" d="M1224.72,242.27c-23.11,21.06-45.13,11.27-52.32,8.32"/><path class="cls-5" d="M1096,1380.44h74.67a256.31,256.31,0,0,0-55.18-187.38"/><path class="cls-5" d="M1301.13,310.11c1.2,26.37.72,75.56-7,123.25-7.55,46.9-18.07,73.67-27.51,108.64-10.91,40.36-22.62,99.9-22.67,178q69.52-108.3,139.06-216.61a20.21,20.21,0,0,0,1.79-18.37l-34.18-86.35,45.08,9.12a4.45,4.45,0,0,0,4-7.48c-26.38-26.77-49.38-62.12-75.75-88.89"/><path class="cls-5" d="M1196,326a923.4,923.4,0,0,0,70.67,216"/></g></svg>